# This file uses centimeters as units for non-parametric coordinates.

mtllib carbonPenta.mtl
g default
v 0.369347 0.000000 -0.877085
v -0.809017 0.000000 -0.803306
v -0.809017 0.000000 0.803306
v 0.369347 0.000000 0.877085
v 1.000000 0.000000 0.000000
v 0.223195 1.000000 -0.276745
v -0.189907 1.000000 -0.185464
v -0.189907 1.000000 0.185464
v 0.223195 1.000000 0.276745
v 0.441220 1.000000 -0.000000
v 0.319373 0.895385 -0.671808
v -0.597321 0.895385 -0.615296
v -0.597322 0.895385 0.615296
v 0.319372 0.895385 0.671808
v 0.788304 0.895385 0.000000
v 0.348603 0.813428 -0.791875
v -0.721143 0.813428 -0.725264
v -0.721144 0.813428 0.725264
v 0.348603 0.813428 0.791875
v 0.912126 0.813428 0.000000
v 0.369347 0.627365 -0.877085
v -0.809017 0.627365 -0.803306
v -0.809017 0.627365 0.803306
v 0.369347 0.627365 0.877085
v 1.000000 0.627365 0.000000
vt 0.997155 0.331573
vt 0.906074 0.212346
vt 0.906074 0.450799
vt 0.758702 0.257887
vt 0.758702 0.405259
vt 0.998554 0.458695
vt 0.998554 0.458695
vt 0.998554 0.458695
vt 0.998554 0.458695
vt 0.998554 0.458695
vt 0.998554 0.699665
vt 0.754211 0.699665
vt 0.906074 0.450799
vt 0.758702 0.405259
vt 0.997155 0.331573
vt 0.758702 0.257887
vt 0.906074 0.212346
vt 0.754211 0.458695
vt 0.998554 0.699665
vt 0.754211 0.699665
vt 0.754211 0.458695
vt 0.998554 0.699665
vt 0.754211 0.699665
vt 0.754211 0.458695
vt 0.998554 0.699665
vt 0.754211 0.699665
vt 0.754211 0.458695
vt 0.998554 0.699665
vt 0.754211 0.699665
vt 0.754211 0.458695
vt 0.779773 0.699665
vt 0.779773 0.458695
vt 0.779773 0.699665
vt 0.779773 0.458695
vt 0.779773 0.699665
vt 0.779773 0.458695
vt 0.779773 0.699665
vt 0.779773 0.458695
vt 0.779773 0.699665
vt 0.779773 0.458695
vt 0.799798 0.699665
vt 0.799798 0.458695
vt 0.799798 0.699665
vt 0.799798 0.458695
vt 0.799798 0.699665
vt 0.799798 0.458695
vt 0.799798 0.699665
vt 0.799798 0.458695
vt 0.799798 0.699665
vt 0.799798 0.458695
vt 0.845262 0.699665
vt 0.845262 0.458695
vt 0.845262 0.699665
vt 0.845262 0.458695
vt 0.845262 0.699665
vt 0.845262 0.458695
vt 0.845262 0.699665
vt 0.845262 0.458695
vt 0.845262 0.699665
vt 0.845262 0.458695
vn -0.026279 0.971289 -0.236447
vn -0.031342 0.911414 -0.410295
vn -0.031342 0.911414 -0.410295
vn -0.026279 0.971289 -0.236447
vn -0.248709 0.968578 -0.000000
vn -0.405950 0.913895 -0.000000
vn -0.405950 0.913895 -0.000000
vn -0.248709 0.968578 -0.000000
vn -0.026279 0.971289 0.236447
vn -0.031342 0.911414 0.410295
vn -0.031342 0.911414 0.410295
vn -0.026279 0.971289 0.236447
vn 0.270403 0.942620 0.195830
vn 0.405240 0.867516 0.288437
vn 0.405240 0.867516 0.288437
vn 0.270403 0.942620 0.195830
vn 0.270403 0.942620 -0.195830
vn 0.405240 0.867516 -0.288437
vn 0.405240 0.867516 -0.288437
vn 0.270403 0.942620 -0.195830
vn 0.000000 -1.000000 0.000000
vn 0.000000 -1.000000 0.000000
vn 0.000000 -1.000000 0.000000
vn 0.000000 -1.000000 0.000000
vn 0.000000 -1.000000 0.000000
vn 0.000000 1.000000 0.000000
vn 0.000000 1.000000 0.000000
vn 0.000000 1.000000 0.000000
vn 0.000000 1.000000 0.000000
vn 0.000000 1.000000 0.000000
vn -0.047838 0.638361 -0.768249
vn -0.047838 0.638361 -0.768249
vn -0.755967 0.654610 -0.000000
vn -0.755967 0.654610 -0.000000
vn -0.047838 0.638361 0.768249
vn -0.047838 0.638361 0.768249
vn 0.666748 0.574872 0.474310
vn 0.666748 0.574872 0.474310
vn 0.666748 0.574872 -0.474309
vn 0.666748 0.574872 -0.474309
vn -0.061027 0.209484 -0.975906
vn -0.061027 0.209484 -0.975906
vn -0.975764 0.218827 -0.000000
vn -0.975764 0.218827 -0.000000
vn -0.061027 0.209484 0.975906
vn -0.061027 0.209484 0.975906
vn 0.799800 0.176533 0.573722
vn 0.799800 0.176533 0.573722
vn 0.799800 0.176533 -0.573722
vn 0.799800 0.176533 -0.573722
vn -0.062489 -0.000000 -0.998046
vn -0.062489 -0.000000 -0.998046
vn -1.000000 -0.000000 -0.000000
vn -1.000000 -0.000000 -0.000000
vn -0.062489 0.000000 0.998046
vn -0.062489 0.000000 0.998046
vn 0.811906 0.000000 0.583788
vn 0.811906 0.000000 0.583788
vn 0.811907 0.000000 -0.583788
vn 0.811907 0.000000 -0.583788
s 1
g carbonPenta
usemtl lambert3SG
f 6/18/1 11/32/2 12/33/3 7/20/4
s 2
f 7/21/5 12/34/6 13/35/7 8/23/8
s 3
f 8/24/9 13/36/10 14/37/11 9/26/12
s 4
f 9/27/13 14/38/14 15/39/15 10/29/16
s 5
f 10/30/17 15/40/18 11/31/19 6/12/20
s 6
f 4/1/21 3/2/22 5/3/23
f 3/2/22 2/4/24 5/3/23
f 2/4/24 1/5/25 5/3/23
s 7
f 10/13/26 6/14/27 9/15/28
f 6/14/27 7/16/29 9/15/28
f 7/16/29 8/17/30 9/15/28
s 1
f 12/33/3 11/32/2 16/42/31 17/43/32
s 2
f 13/35/7 12/34/6 17/44/33 18/45/34
s 3
f 14/37/11 13/36/10 18/46/35 19/47/36
s 4
f 15/39/15 14/38/14 19/48/37 20/49/38
s 5
f 11/31/19 15/40/18 20/50/39 16/41/40
s 1
f 17/43/32 16/42/31 21/52/41 22/53/42
s 2
f 18/45/34 17/44/33 22/54/43 23/55/44
s 3
f 19/47/36 18/46/35 23/56/45 24/57/46
s 4
f 20/49/38 19/48/37 24/58/47 25/59/48
s 5
f 16/41/40 20/50/39 25/60/49 21/51/50
s 1
f 22/53/42 21/52/41 1/6/51 2/19/52
s 2
f 23/55/44 22/54/43 2/7/53 3/22/54
s 3
f 24/57/46 23/56/45 3/8/55 4/25/56
s 4
f 25/59/48 24/58/47 4/9/57 5/28/58
s 5
f 21/51/50 25/60/49 5/10/59 1/11/60
