# This file uses centimeters as units for non-parametric coordinates.

mtllib flipper.mtl
g default
v 0.069249 -0.081819 0.919925
v 0.097933 -0.001744 0.886757
v 0.069249 0.078331 0.919925
v 0.000000 0.111499 1.000000
v -0.069249 0.078331 1.080075
v -0.098481 -0.001744 1.113243
v -0.069249 -0.081819 1.080075
v 0.000000 -0.114987 1.000000
v 0.756878 -0.195062 0.919925
v 0.756878 -0.114987 0.886757
v 0.756878 -0.034912 0.919925
v 0.756878 -0.001744 1.000000
v 0.756878 -0.034912 1.080075
v 0.756878 -0.114987 1.113243
v 0.756878 -0.195062 1.080075
v 0.756878 -0.228230 1.000000
v 0.069249 -0.081819 0.483580
v 0.097933 -0.001744 0.483580
v 0.000000 -0.001744 0.483580
v 0.069249 0.078331 0.483580
v 0.000000 0.111499 0.483580
v -0.069249 0.078331 0.483580
v -0.097933 -0.001744 0.483580
v -0.069249 -0.081819 0.483580
v 0.000000 -0.114987 0.483580
v 1.053870 -0.226612 0.960061
v 1.053870 -0.212696 0.943518
v 1.053870 -0.198780 0.960061
v 1.053870 -0.198780 1.000000
v 1.053870 -0.198780 1.039939
v 1.053870 -0.212696 1.056482
v 1.053870 -0.226611 1.039939
v 1.053870 -0.232375 1.000000
v 1.304691 -0.227508 0.974297
v 1.304691 -0.227509 0.963651
v 1.304690 -0.227509 1.000000
v 1.304690 -0.227509 0.974297
v 1.304691 -0.227508 1.000000
v 1.304691 -0.227506 1.025702
v 1.304690 -0.227508 1.036349
v 1.304690 -0.227510 1.025702
v 1.304691 -0.227508 1.000000
v 0.842960 -0.212891 0.940487
v 0.842960 -0.176382 0.915836
v 0.842960 -0.139874 0.940487
v 0.842960 -0.139874 1.000000
v 0.842960 -0.139874 1.059513
v 0.842960 -0.176382 1.084164
v 0.842960 -0.212890 1.059513
v 0.842960 -0.228013 1.000000
vt 0.525639 0.479531
vt 0.727958 0.479531
vt 0.727958 0.479531
vt 0.727958 0.479531
vt 0.727958 0.479531
vt 0.727958 0.479531
vt 0.727958 0.479531
vt 0.727958 0.479531
vt 0.525639 0.479531
vt 0.525639 0.479531
vt 0.525639 0.479531
vt 0.525639 0.479531
vt 0.525639 0.479531
vt 0.525639 0.479531
vt 0.525639 0.479531
vt 0.525639 0.479531
vt 0.727958 0.479531
vt 0.525639 0.681849
vt 0.525639 0.681849
vt 0.525639 0.681849
vt 0.525639 0.681849
vt 0.525639 0.681849
vt 0.525639 0.681849
vt 0.525639 0.681849
vt 0.525639 0.681849
vt 0.727958 0.681849
vt 0.525639 0.479531
vt 0.525639 0.479531
vt 0.525639 0.479531
vt 0.525639 0.479531
vt 0.525639 0.479531
vt 0.525639 0.479531
vt 0.727958 0.479531
vt 0.525639 0.479531
vt 0.727958 0.681849
vt 0.727958 0.681849
vt 0.727958 0.681849
vt 0.525639 0.681849
vt 0.727958 0.681849
vt 0.727958 0.681849
vt 0.727958 0.681849
vt 0.727958 0.681849
vt 0.727958 0.681849
vt 0.727958 0.681849
vt 0.727958 0.681849
vt 0.525639 0.681849
vt 0.525639 0.681849
vt 0.525639 0.681849
vt 0.525639 0.681849
vt 0.525639 0.681849
vt 0.525639 0.681849
vt 0.525639 0.681849
vt 0.727958 0.681849
vt 0.525639 0.681849
vt 0.525639 0.681849
vt 0.525639 0.681849
vt 0.525639 0.681849
vt 0.525639 0.681849
vt 0.525639 0.681849
vt 0.525639 0.681849
vt 0.727958 0.479531
vt 0.525639 0.479531
vt 0.525639 0.479531
vt 0.525639 0.479531
vt 0.525639 0.479531
vt 0.525639 0.479531
vt 0.525639 0.479531
vt 0.525639 0.479531
vt 0.727958 0.479531
vt 0.727958 0.681849
vt 0.727958 0.479531
vt 0.727958 0.681849
vt 0.727958 0.479531
vt 0.727958 0.681849
vt 0.727958 0.479531
vt 0.727958 0.681849
vt 0.727958 0.479531
vt 0.727958 0.681849
vt 0.727958 0.479531
vt 0.727958 0.681849
vt 0.727958 0.479531
vt 0.727958 0.681849
vt 0.525639 0.479531
vt 0.727958 0.479531
vt 0.727958 0.681849
vt 0.525639 0.479531
vt 0.727958 0.479531
vt 0.727958 0.681849
vt 0.525639 0.479531
vt 0.727958 0.479531
vt 0.727958 0.681849
vt 0.525639 0.479531
vt 0.727958 0.479531
vt 0.727958 0.681849
vt 0.525639 0.479531
vt 0.727958 0.479531
vt 0.727958 0.681849
vt 0.525639 0.479531
vt 0.727958 0.479531
vt 0.727958 0.681849
vt 0.525639 0.479531
vt 0.727958 0.479531
vt 0.727958 0.681849
vt 0.525639 0.479531
vt 0.727958 0.479531
vt 0.525639 0.479531
vt 0.727958 0.479531
vt 0.727958 0.681849
vt 0.525639 0.479531
vt 0.727958 0.479531
vt 0.727958 0.681849
vt 0.525639 0.479531
vt 0.727958 0.479531
vt 0.727958 0.681849
vt 0.525639 0.479531
vt 0.727958 0.479531
vt 0.727958 0.681849
vt 0.525639 0.479531
vt 0.727958 0.479531
vt 0.727958 0.681849
vt 0.525639 0.479531
vt 0.727958 0.479531
vt 0.727958 0.681849
vt 0.525639 0.479531
vt 0.727958 0.479531
vt 0.727958 0.681849
vt 0.525639 0.479531
vt 0.727958 0.479531
vt 0.525639 0.479531
vt 0.727958 0.479531
vt 0.727958 0.681849
vt 0.525639 0.681849
vt 0.525639 0.479531
vt 0.525639 0.681849
vt 0.525639 0.479531
vt 0.525639 0.681849
vt 0.525639 0.479531
vt 0.525639 0.681849
vt 0.525639 0.479531
vt 0.525639 0.681849
vt 0.525639 0.479531
vt 0.525639 0.681849
vt 0.525639 0.479531
vt 0.525639 0.681849
vt 0.525639 0.479531
vt 0.727958 0.479531
vt 0.727958 0.681849
vt 0.525639 0.681849
vt 0.727958 0.479531
vt 0.727958 0.681849
vt 0.525639 0.681849
vt 0.727958 0.479531
vt 0.727958 0.681849
vt 0.525639 0.681849
vt 0.727958 0.479531
vt 0.727958 0.681849
vt 0.525639 0.681849
vt 0.727958 0.479531
vt 0.727958 0.681849
vt 0.525639 0.681849
vt 0.727958 0.479531
vt 0.727958 0.681849
vt 0.525639 0.681849
vt 0.727958 0.479531
vt 0.727958 0.681849
vt 0.525639 0.681849
vt 0.727958 0.681849
vt 0.525639 0.681849
vt 0.525639 0.479531
vt 0.727958 0.479531
vt 0.727958 0.681849
vt 0.525639 0.681849
vt 0.525639 0.479531
vt 0.727958 0.479531
vt 0.727958 0.681849
vt 0.525639 0.479531
vt 0.727958 0.479531
vt 0.727958 0.681849
vt 0.525639 0.479531
vt 0.727958 0.479531
vt 0.727958 0.681849
vt 0.525639 0.479531
vt 0.727958 0.479531
vt 0.727958 0.681849
vt 0.525639 0.479531
vt 0.727958 0.479531
vt 0.727958 0.681849
vt 0.525639 0.479531
vt 0.727958 0.479531
vt 0.727958 0.681849
vt 0.525639 0.479531
vt 0.727958 0.479531
vt 0.525639 0.479531
vt 0.727958 0.479531
vt 0.727958 0.681849
vt 0.525639 0.681849
vt 0.727958 0.479531
vt 0.727958 0.681849
vt 0.727958 0.479531
vt 0.727958 0.681849
vt 0.727958 0.479531
vt 0.727958 0.681849
vt 0.727958 0.479531
vt 0.727958 0.681849
vt 0.727958 0.479531
vt 0.727958 0.681849
vt 0.727958 0.479531
vt 0.727958 0.681849
vn 0.122491 -0.426028 -0.896380
vn 0.122491 -0.426028 -0.896380
vn -0.004022 -0.409256 -0.912411
vn -0.004022 -0.409256 -0.912411
vn 0.242114 0.434837 -0.867351
vn 0.242114 0.434837 -0.867351
vn 0.194052 0.396114 -0.897462
vn 0.194052 0.396114 -0.897462
vn 0.246724 0.943624 -0.220683
vn 0.246724 0.943624 -0.220683
vn 0.318453 0.946431 0.053436
vn 0.309502 0.902826 -0.298518
vn -0.055358 0.950411 0.306031
vn -0.055358 0.950411 0.306031
vn 0.289123 0.875678 0.386776
vn -0.130669 0.426685 0.894911
vn -0.130669 0.426685 0.894911
vn 0.179893 0.383070 0.906033
vn 0.179893 0.383070 0.906033
vn -0.226498 -0.434147 0.871903
vn -0.226498 -0.434147 0.871903
vn 0.000558 -0.417745 0.908564
vn 0.000558 -0.417745 0.908564
vn -0.235938 -0.944831 0.227216
vn -0.235938 -0.944831 0.227216
vn -0.100210 -0.994699 -0.023049
vn -0.092506 -0.940143 0.327985
vn 0.051156 -0.950531 -0.306388
vn 0.051156 -0.950531 -0.306388
vn -0.095153 -0.922392 -0.374351
vn 0.000003 0.000000 -1.000000
vn 0.000002 -0.000002 -1.000000
vn 0.000000 0.000000 -1.000000
vn 0.000002 0.000003 -1.000000
vn 0.000000 0.000003 -1.000000
vn -0.000002 0.000002 -1.000000
vn -0.000003 0.000000 -1.000000
vn -0.000002 -0.000002 -1.000000
vn 0.000000 -0.000003 -1.000000
vn -0.404399 0.914583 -0.000000
vn -0.066053 0.997816 -0.000020
vn 0.222034 0.975039 0.000018
vn 0.463245 0.886230 -0.000023
vn 0.912985 -0.407993 -0.000002
vn 0.910930 -0.412560 0.000021
vn 0.975065 -0.221918 0.000022
vn 0.055099 0.998481 0.000068
vn -0.221779 0.975097 0.000030
vn 0.941423 -0.337227 0.000000
vn 0.941423 -0.337227 0.000000
vn 0.941423 0.337228 0.000000
vn 0.941423 0.337228 0.000000
vn 0.431973 0.901886 0.000000
vn 0.431973 0.901886 0.000000
vn -0.431975 0.901886 0.000000
vn -0.431975 0.901886 0.000000
vn -0.940425 0.340000 -0.000420
vn -0.940425 0.340000 -0.000420
vn -0.940425 -0.340000 -0.000420
vn -0.940425 -0.340000 -0.000420
vn -0.431974 -0.901886 0.000000
vn -0.431974 -0.901886 0.000000
vn 0.431973 -0.901886 0.000000
vn 0.431973 -0.901886 0.000000
vn 0.032541 -0.543557 -0.838741
vn 0.032541 -0.543557 -0.838741
vn 0.342570 0.545767 -0.764711
vn 0.342570 0.545767 -0.764711
vn 0.443832 0.896110 0.000001
vn 0.443484 0.895408 -0.039580
vn 0.443485 0.895408 0.039581
vn 0.342571 0.545774 0.764706
vn 0.342571 0.545774 0.764706
vn 0.032542 -0.543558 0.838740
vn 0.032542 -0.543558 0.838740
vn -0.046528 -0.998917 0.000003
vn -0.044858 -0.963069 0.265491
vn -0.044859 -0.963071 -0.265486
vn -0.001721 -0.916560 -0.399893
vn 0.007682 -0.778048 -0.628158
vn 0.003335 -0.890191 -0.455574
vn 0.006977 -0.960909 -0.276776
vn 0.160396 0.788582 -0.593643
vn 0.176965 0.931272 -0.318458
vn 0.113934 0.965395 -0.234587
vn 0.107850 0.884978 -0.452970
vn 0.176096 0.984373 -0.000012
vn 0.113792 0.993505 -0.000020
vn 0.176963 0.931274 0.318454
vn 0.113930 0.965396 0.234585
vn 0.160394 0.788573 0.593655
vn 0.107847 0.884962 0.453003
vn 0.007684 -0.778024 0.628188
vn -0.001721 -0.916553 0.399909
vn 0.006976 -0.960901 0.276805
vn 0.003337 -0.890156 0.455644
vn -0.011010 -0.999939 -0.000002
vn 0.010404 -0.999946 -0.000009
s 1
g flipper
usemtl lambert3SG
f 1/9/1 2/69/2 10/70/3 9/18/4
s 2
f 2/10/5 3/71/6 11/72/7 10/19/8
f 3/11/9 4/73/10 12/74/11 11/20/12
f 4/12/13 5/75/14 13/76/15 12/21/11
f 5/13/16 6/77/17 14/78/18 13/22/19
s 1
f 6/14/20 7/79/21 15/80/22 14/23/23
f 7/15/24 8/81/25 16/82/26 15/24/27
f 8/16/28 1/17/29 9/26/30 16/25/26
s 9
f 18/83/31 17/84/32 19/85/33
f 20/86/34 18/87/31 19/88/33
f 21/89/35 20/90/34 19/91/33
f 22/92/36 21/93/35 19/94/33
f 23/95/37 22/96/36 19/97/33
f 24/98/38 23/99/37 19/100/33
f 25/101/39 24/102/38 19/103/33
f 17/104/32 25/105/39 19/35/33
s 10
f 34/106/40 35/107/41 36/108/42
f 35/109/41 37/110/43 36/111/42
f 37/112/43 38/113/44 36/114/42
f 38/115/44 39/116/45 36/117/42
f 39/118/45 40/119/46 36/120/42
f 40/121/46 41/122/47 36/123/42
f 41/124/47 42/125/48 36/126/42
f 42/127/48 34/128/40 36/36/42
s 1
f 2/129/2 1/130/1 17/131/49 18/132/50
s 2
f 3/133/6 2/2/5 18/37/51 20/134/52
f 4/135/10 3/3/9 20/39/53 21/136/54
f 5/137/14 4/4/13 21/40/55 22/138/56
f 6/139/17 5/5/16 22/41/57 23/140/58
s 1
f 7/141/21 6/6/20 23/42/59 24/142/60
f 8/143/25 7/7/24 24/43/61 25/144/62
f 1/1/29 8/8/28 25/44/63 17/38/64
f 9/145/4 10/146/3 44/147/65 43/148/66
s 2
f 10/32/8 11/149/7 45/150/67 44/151/68
f 11/31/12 12/152/11 46/153/69 45/154/70
f 12/30/11 13/155/15 47/156/71 46/157/69
f 13/29/19 14/158/18 48/159/72 47/160/73
s 1
f 14/28/23 15/161/22 49/162/74 48/163/75
f 15/27/27 16/164/26 50/165/76 49/166/77
f 16/34/26 9/33/30 43/167/78 50/168/76
f 26/169/79 27/170/80 35/171/81 34/172/82
s 2
f 27/173/83 28/174/84 37/175/85 35/54/86
f 28/176/84 29/177/87 38/178/88 37/55/85
f 29/179/87 30/180/89 39/181/90 38/56/88
f 30/182/89 31/183/91 40/184/92 39/57/90
s 1
f 31/185/93 32/186/94 41/187/95 40/58/96
f 32/188/94 33/189/97 42/190/98 41/59/95
f 33/191/97 26/192/79 34/53/82 42/60/98
f 43/193/66 44/194/65 27/195/80 26/196/79
s 2
f 44/62/68 45/197/67 28/198/84 27/46/83
f 45/63/70 46/199/69 29/200/87 28/47/84
f 46/64/69 47/201/71 30/202/89 29/48/87
f 47/65/73 48/203/72 31/204/91 30/49/89
s 1
f 48/66/75 49/205/74 32/206/94 31/50/93
f 49/67/77 50/207/76 33/208/97 32/51/94
f 50/68/76 43/61/78 26/45/79 33/52/97
