# This file uses centimeters as units for non-parametric coordinates.

mtllib penta.mtl
g default
v 0.369347 0.000000 -0.877085
v -0.809017 0.000000 -0.803306
v -0.809017 0.000000 0.803306
v 0.369347 0.000000 0.877085
v 1.000000 0.000000 0.000000
v 0.369347 0.148771 -0.877085
v -0.809017 0.148771 -0.803306
v -0.809017 0.148771 0.803306
v 0.369347 0.148771 0.877085
v 1.000000 0.148771 0.000000
vt 0.998932 0.083165
vt 0.998932 0.043753
vt 0.998932 0.004342
vt 0.920108 0.004342
vt 0.920108 0.083165
vt 0.920108 0.004342
vt 0.920108 0.004342
vt 0.920108 0.004342
vt 0.920108 0.004342
vt 0.920108 0.004342
vt 0.998932 0.004342
vt 0.920108 0.083165
vt 0.920108 0.083165
vt 0.920108 0.083165
vt 0.920108 0.083165
vt 0.920108 0.083165
vt 0.998932 0.083165
vt 0.920108 0.083165
vt 0.998932 0.083165
vt 0.998932 0.043753
vt 0.998932 0.004342
vt 0.920108 0.004342
vt 0.998932 0.004342
vt 0.998932 0.083165
vt 0.998932 0.004342
vt 0.998932 0.083165
vt 0.998932 0.004342
vt 0.998932 0.083165
vt 0.998932 0.004342
vt 0.998932 0.083165
vn -0.062489 0.000000 -0.998046
vn -0.062489 0.000000 -0.998046
vn -0.062489 0.000000 -0.998046
vn -0.062489 0.000000 -0.998046
vn -1.000000 0.000000 -0.000000
vn -1.000000 0.000000 -0.000000
vn -1.000000 0.000000 -0.000000
vn -1.000000 0.000000 -0.000000
vn -0.062489 0.000000 0.998046
vn -0.062489 0.000000 0.998046
vn -0.062489 0.000000 0.998046
vn -0.062489 0.000000 0.998046
vn 0.811907 0.000000 0.583788
vn 0.811907 0.000000 0.583788
vn 0.811907 0.000000 0.583788
vn 0.811907 0.000000 0.583788
vn 0.811907 0.000000 -0.583788
vn 0.811907 0.000000 -0.583788
vn 0.811907 0.000000 -0.583788
vn 0.811907 0.000000 -0.583788
vn 0.000000 -1.000000 0.000000
vn 0.000000 -1.000000 0.000000
vn 0.000000 -1.000000 0.000000
vn 0.000000 -1.000000 0.000000
vn 0.000000 -1.000000 0.000000
vn 0.000000 1.000000 0.000000
vn 0.000000 1.000000 -0.000000
vn 0.000000 1.000000 0.000000
vn 0.000000 1.000000 0.000000
vn 0.000000 1.000000 0.000000
s 1
g pentagon
usemtl lambert3SG
f 1/6/1 2/23/2 6/12/3
f 6/12/3 2/23/2 7/24/4
s 2
f 2/7/5 3/25/6 7/13/7
f 7/13/7 3/25/6 8/26/8
s 3
f 3/8/9 4/27/10 8/14/11
f 8/14/11 4/27/10 9/28/12
s 4
f 4/9/13 5/29/14 9/15/15
f 9/15/15 5/29/14 10/30/16
s 5
f 5/10/17 1/11/18 10/16/19
f 10/16/19 1/11/18 6/17/20
s 6
f 4/4/21 3/3/22 5/5/23
f 3/3/22 2/2/24 5/5/23
f 2/2/24 1/1/25 5/5/23
s 7
f 10/22/26 6/21/27 9/18/28
f 6/21/27 7/20/29 9/18/28
f 7/20/29 8/19/30 9/18/28
