# This file uses centimeters as units for non-parametric coordinates.

mtllib pushbar.mtl
g default
v -0.326814 0.264510 0.857088
v -0.298131 0.344585 0.857088
v -0.326814 0.424660 0.857088
v -0.396064 0.457828 0.857088
v -0.465313 0.424660 0.857088
v -0.494544 0.344585 0.857088
v -0.465313 0.264510 0.857088
v -0.396064 0.231342 0.857088
v -0.326814 0.264510 0.000000
v -0.298130 0.344585 0.000000
v -0.396063 0.344585 0.000000
v -0.326814 0.424660 0.000000
v -0.396063 0.457828 0.000000
v -0.465313 0.424660 0.000000
v -0.493996 0.344585 0.000000
v -0.465313 0.264510 0.000000
v -0.396063 0.231342 0.000000
v 0.362471 0.264510 0.857088
v 0.391154 0.344585 0.857088
v 0.362471 0.424660 0.857088
v 0.293221 0.457828 0.857088
v 0.223972 0.424660 0.857088
v 0.194741 0.344585 0.857088
v 0.223972 0.264510 0.857088
v 0.293221 0.231342 0.857088
v 0.362471 0.264510 0.000000
v 0.391155 0.344585 0.000000
v 0.293222 0.344585 0.000000
v 0.362471 0.424660 0.000000
v 0.293222 0.457828 0.000000
v 0.223972 0.424660 0.000000
v 0.195289 0.344585 0.000000
v 0.223972 0.264510 0.000000
v 0.293222 0.231342 0.000000
v -0.750000 0.144585 1.075000
v 0.750000 0.144585 1.075000
v -0.750000 0.544585 1.075000
v 0.750000 0.544585 1.075000
v -0.750000 0.544585 0.925000
v 0.750000 0.544585 0.925000
v -0.750000 0.144585 0.925000
v 0.750000 0.144585 0.925000
v 0.750000 0.144585 0.925000
v 0.362471 0.424660 0.857088
v 0.362471 0.264510 0.857088
v -0.749634 0.544585 0.925000
v -0.750366 0.144585 0.925000
v -0.465313 0.424660 0.857088
v -0.465313 0.264510 0.857088
v -0.326814 0.424660 0.857088
v -0.326814 0.264510 0.857088
v 0.223972 0.424660 0.857088
v 0.223972 0.264510 0.857088
v 0.194741 0.344585 0.857088
v 0.391154 0.344585 0.857088
v -0.494544 0.344585 0.857088
vt 0.534424 0.593642
vt 0.534424 0.501758
vt 0.626308 0.501758
vt 0.718192 0.501758
vt 0.718192 0.593642
vt 0.718192 0.685526
vt 0.626308 0.685526
vt 0.534424 0.685526
vt 0.718192 0.685526
vt 0.718192 0.685526
vt 0.534424 0.685526
vt 0.718192 0.685526
vt 0.718192 0.685526
vt 0.718192 0.685526
vt 0.718192 0.685526
vt 0.718192 0.685526
vt 0.718192 0.685526
vt 0.718192 0.685526
vt 0.534424 0.685526
vt 0.718192 0.685526
vt 0.718192 0.685526
vt 0.718192 0.685526
vt 0.718192 0.685526
vt 0.718192 0.685526
vt 0.718192 0.685526
vt 0.718192 0.685526
vt 0.534424 0.501758
vt 0.534424 0.593642
vt 0.626308 0.501758
vt 0.718192 0.501758
vt 0.718192 0.593642
vt 0.718192 0.685526
vt 0.626308 0.685526
vt 0.534424 0.685526
vt 0.495187 0.461505
vt 0.256875 0.461505
vt 0.256875 0.726343
vt 0.495187 0.726343
vt 0.495187 0.461505
vt 0.256875 0.461505
vt 0.495187 0.593924
vt 0.495187 0.461505
vt 0.626308 0.685526
vt 0.256875 0.726343
vt 0.256875 0.461505
vt 0.495187 0.726343
vt 0.256875 0.726343
vt 0.495187 0.461505
vt 0.495187 0.726343
vt 0.256875 0.461505
vt 0.256875 0.726343
vt 0.495187 0.726343
vt 0.718192 0.501758
vt 0.534424 0.501758
vt 0.495187 0.461505
vt 0.495187 0.461505
vt 0.626308 0.501758
vt 0.495187 0.726343
vt 0.718192 0.501758
vt 0.534424 0.501758
vt 0.495187 0.726343
vt 0.718192 0.685526
vt 0.718192 0.685526
vt 0.534424 0.685526
vt 0.718192 0.501758
vt 0.534424 0.685526
vt 0.534424 0.501758
vt 0.534424 0.501758
vt 0.718192 0.501758
vt 0.718192 0.685526
vt 0.534424 0.501758
vt 0.718192 0.501758
vt 0.718192 0.685526
vt 0.534424 0.501758
vt 0.718192 0.501758
vt 0.718192 0.685526
vt 0.534424 0.501758
vt 0.718192 0.501758
vt 0.718192 0.685526
vt 0.534424 0.501758
vt 0.718192 0.501758
vt 0.718192 0.685526
vt 0.534424 0.501758
vt 0.718192 0.501758
vt 0.718192 0.685526
vt 0.534424 0.501758
vt 0.718192 0.501758
vt 0.718192 0.685526
vt 0.534424 0.501758
vt 0.718192 0.501758
vt 0.534424 0.501758
vt 0.718192 0.501758
vt 0.718192 0.685526
vt 0.534424 0.685526
vt 0.534424 0.501758
vt 0.718192 0.501758
vt 0.534424 0.685526
vt 0.534424 0.501758
vt 0.718192 0.501758
vt 0.534424 0.685526
vt 0.534424 0.501758
vt 0.718192 0.501758
vt 0.534424 0.685526
vt 0.534424 0.501758
vt 0.718192 0.501758
vt 0.534424 0.685526
vt 0.534424 0.501758
vt 0.718192 0.501758
vt 0.534424 0.685526
vt 0.534424 0.501758
vt 0.718192 0.501758
vt 0.534424 0.685526
vt 0.534424 0.501758
vt 0.718192 0.501758
vt 0.534424 0.501758
vt 0.718192 0.501758
vt 0.718192 0.685526
vt 0.534424 0.501758
vt 0.718192 0.501758
vt 0.718192 0.685526
vt 0.534424 0.501758
vt 0.718192 0.501758
vt 0.718192 0.685526
vt 0.534424 0.501758
vt 0.718192 0.501758
vt 0.718192 0.685526
vt 0.534424 0.501758
vt 0.718192 0.501758
vt 0.718192 0.685526
vt 0.534424 0.501758
vt 0.718192 0.501758
vt 0.718192 0.685526
vt 0.534424 0.501758
vt 0.718192 0.501758
vt 0.718192 0.685526
vt 0.534424 0.501758
vt 0.718192 0.501758
vt 0.534424 0.501758
vt 0.718192 0.501758
vt 0.718192 0.685526
vt 0.534424 0.685526
vt 0.534424 0.501758
vt 0.718192 0.501758
vt 0.534424 0.685526
vt 0.534424 0.501758
vt 0.718192 0.501758
vt 0.534424 0.685526
vt 0.534424 0.501758
vt 0.718192 0.501758
vt 0.534424 0.685526
vt 0.534424 0.501758
vt 0.718192 0.501758
vt 0.534424 0.685526
vt 0.534424 0.501758
vt 0.718192 0.501758
vt 0.534424 0.685526
vt 0.534424 0.501758
vt 0.718192 0.501758
vt 0.534424 0.685526
vt 0.534424 0.501758
vt 0.718192 0.501758
vt 0.256875 0.461505
vt 0.495187 0.461505
vt 0.495187 0.726343
vt 0.256875 0.726343
vt 0.256875 0.461505
vt 0.495187 0.461505
vt 0.495187 0.726343
vt 0.256875 0.726343
vt 0.256875 0.461505
vt 0.495187 0.461505
vt 0.495187 0.726343
vt 0.256875 0.461505
vt 0.495187 0.461505
vt 0.256875 0.461505
vt 0.495187 0.461505
vt 0.495187 0.593924
vt 0.495187 0.726343
vt 0.376031 0.726343
vt 0.256875 0.726343
vt 0.256875 0.461505
vt 0.495187 0.461505
vt 0.495187 0.726343
vt 0.256875 0.461505
vt 0.495187 0.461505
vt 0.495187 0.726343
vt 0.256875 0.461505
vt 0.495187 0.461505
vt 0.495187 0.726343
vt 0.256875 0.461505
vt 0.495187 0.461505
vt 0.495187 0.726343
vt 0.256875 0.461505
vt 0.495187 0.461505
vt 0.495187 0.726343
vt 0.534424 0.501758
vt 0.626308 0.501758
vt 0.718192 0.501758
vt 0.718192 0.593642
vt 0.718192 0.685526
vt 0.534424 0.685526
vt 0.534424 0.593642
vt 0.534424 0.501758
vt 0.718192 0.501758
vt 0.718192 0.685526
vt 0.534424 0.685526
vt 0.534424 0.501758
vt 0.718192 0.501758
vt 0.718192 0.593642
vt 0.718192 0.685526
vt 0.626308 0.685526
vt 0.534424 0.685526
vt 0.534424 0.593642
vt 0.495187 0.726343
vt 0.256875 0.726343
vt 0.256875 0.461505
vt 0.256875 0.461505
vt 0.495187 0.593924
vt 0.495187 0.726343
vt 0.256875 0.726343
vt 0.718192 0.685526
vt 0.534424 0.685526
vt 0.256875 0.461505
vt 0.495187 0.461505
vn 0.000003 0.000000 -1.000000
vn 0.000002 -0.000002 -1.000000
vn 0.000000 0.000000 -1.000000
vn 0.000002 0.000002 -1.000000
vn 0.000000 0.000002 -1.000000
vn -0.000002 0.000002 -1.000000
vn -0.000003 0.000000 -1.000000
vn -0.000002 -0.000002 -1.000000
vn 0.000000 -0.000002 -1.000000
vn 0.941423 -0.337227 0.000000
vn 0.941423 -0.337227 0.000000
vn 0.941423 -0.337227 0.000000
vn 0.941423 -0.337227 0.000000
vn 0.941423 0.337228 0.000000
vn 0.941423 0.337228 0.000000
vn 0.941423 0.337228 0.000000
vn 0.941423 0.337228 0.000000
vn 0.431974 0.901886 0.000000
vn 0.431974 0.901886 0.000000
vn 0.431974 0.901886 0.000000
vn 0.431974 0.901886 0.000000
vn -0.431975 0.901886 -0.000000
vn -0.431975 0.901886 -0.000000
vn -0.431975 0.901886 -0.000000
vn -0.431975 0.901886 -0.000000
vn -0.940397 0.340078 -0.000301
vn -0.940397 0.340078 -0.000301
vn -0.940397 0.340078 -0.000301
vn -0.940397 0.340078 -0.000301
vn -0.940398 -0.340077 -0.000301
vn -0.940398 -0.340077 -0.000301
vn -0.940398 -0.340077 -0.000301
vn -0.940398 -0.340077 -0.000301
vn -0.431974 -0.901886 -0.000000
vn -0.431974 -0.901886 -0.000000
vn -0.431974 -0.901886 -0.000000
vn -0.431974 -0.901886 -0.000000
vn 0.431973 -0.901887 0.000000
vn 0.431973 -0.901887 0.000000
vn 0.431973 -0.901887 0.000000
vn 0.431973 -0.901887 0.000000
vn 0.000000 0.000000 1.000000
vn 0.000000 0.000000 1.000000
vn 0.000000 0.000000 1.000000
vn 0.000000 0.000000 1.000000
vn 0.000000 0.000000 1.000000
vn 0.000000 0.000000 1.000000
vn 0.000000 0.000000 1.000000
vn 0.000000 0.000000 1.000000
vn 0.000003 0.000000 -1.000000
vn 0.000002 -0.000002 -1.000000
vn 0.000000 0.000000 -1.000000
vn 0.000002 0.000002 -1.000000
vn 0.000000 0.000002 -1.000000
vn -0.000002 0.000002 -1.000000
vn -0.000003 0.000000 -1.000000
vn -0.000002 -0.000002 -1.000000
vn 0.000000 -0.000002 -1.000000
vn 0.941423 -0.337227 0.000000
vn 0.941423 -0.337227 0.000000
vn 0.941423 -0.337227 0.000000
vn 0.941423 -0.337227 0.000000
vn 0.941423 0.337228 0.000000
vn 0.941423 0.337228 0.000000
vn 0.941423 0.337228 0.000000
vn 0.941423 0.337228 0.000000
vn 0.431974 0.901886 0.000000
vn 0.431974 0.901886 0.000000
vn 0.431974 0.901886 0.000000
vn 0.431974 0.901886 0.000000
vn -0.431974 0.901886 -0.000000
vn -0.431974 0.901886 -0.000000
vn -0.431974 0.901886 -0.000000
vn -0.431974 0.901886 -0.000000
vn -0.940397 0.340077 -0.000301
vn -0.940397 0.340077 -0.000301
vn -0.940397 0.340077 -0.000301
vn -0.940397 0.340077 -0.000301
vn -0.940398 -0.340077 -0.000301
vn -0.940398 -0.340077 -0.000301
vn -0.940398 -0.340077 -0.000301
vn -0.940398 -0.340077 -0.000301
vn -0.431974 -0.901886 -0.000000
vn -0.431974 -0.901886 -0.000000
vn -0.431974 -0.901886 -0.000000
vn -0.431974 -0.901886 -0.000000
vn 0.431973 -0.901887 0.000000
vn 0.431973 -0.901887 0.000000
vn 0.431973 -0.901887 0.000000
vn 0.431973 -0.901887 0.000000
vn 0.000000 0.000000 1.000000
vn 0.000000 0.000000 1.000000
vn 0.000000 0.000000 1.000000
vn 0.000000 0.000000 1.000000
vn 0.000000 0.000000 1.000000
vn 0.000000 0.000000 1.000000
vn 0.000000 0.000000 1.000000
vn 0.000000 0.000000 1.000000
vn 0.000000 0.000000 1.000000
vn 0.000000 0.000000 1.000000
vn 0.000000 0.000000 1.000000
vn 0.000000 0.000000 1.000000
vn 0.000000 1.000000 0.000000
vn 0.000000 1.000000 0.000000
vn 0.000000 1.000000 0.000000
vn 0.000000 1.000000 0.000000
vn -0.202136 0.073791 -0.976574
vn -0.202136 0.073791 -0.976574
vn -0.202136 0.073791 -0.976574
vn 0.000000 -1.000000 0.000000
vn 0.000000 -1.000000 0.000000
vn 0.000000 -1.000000 0.000000
vn 0.000000 -1.000000 0.000000
vn 1.000000 0.000000 0.000000
vn 1.000000 0.000000 0.000000
vn 1.000000 0.000000 0.000000
vn 1.000000 0.000000 0.000000
vn -1.000000 0.000000 0.000000
vn -1.000000 0.000000 0.000000
vn -1.000000 0.000000 0.000000
vn -1.000000 0.000000 0.000000
vn 0.000000 -0.616393 -0.787439
vn 0.000000 -0.616393 -0.787439
vn 0.000000 -0.616393 -0.787439
vn 0.000000 -0.616393 -0.787439
vn 0.000000 -0.616393 -0.787439
vn 0.000000 -0.616393 -0.787439
vn 0.155586 -0.055733 -0.986249
vn 0.155586 -0.055733 -0.986249
vn 0.155586 -0.055733 -0.986249
vn 0.103367 0.215812 -0.970948
vn 0.103367 0.215812 -0.970948
vn 0.103367 0.215812 -0.970948
vn 0.103367 -0.215812 -0.970948
vn 0.103367 -0.215812 -0.970948
vn 0.103367 -0.215812 -0.970948
vn -0.121851 0.254402 -0.959391
vn -0.121851 0.254402 -0.959391
vn -0.121851 0.254402 -0.959391
vn -0.121697 -0.254082 -0.959496
vn -0.121697 -0.254082 -0.959496
vn -0.121697 -0.254082 -0.959496
vn 0.000000 0.000000 -1.000000
vn 0.000000 0.000000 -1.000000
vn 0.000000 0.000000 -1.000000
vn 0.000000 0.000000 -1.000000
vn 0.000000 0.000000 -1.000000
vn 0.000000 0.000000 -1.000000
vn 0.000000 0.000000 -1.000000
vn 0.000000 0.000000 -1.000000
vn 0.000000 0.000000 -1.000000
vn 0.000000 0.000000 -1.000000
vn 0.000000 0.000000 -1.000000
vn 0.000000 0.000000 -1.000000
vn 0.000000 0.000000 -1.000000
vn 0.000000 0.000000 -1.000000
vn 0.000000 0.000000 -1.000000
vn 0.000000 0.000000 -1.000000
vn 0.000000 0.000000 -1.000000
vn 0.000000 0.000000 -1.000000
vn 0.000000 0.000000 -1.000000
vn 0.000000 0.000000 -1.000000
vn 0.185949 0.000000 -0.982559
vn 0.185949 0.000000 -0.982559
vn 0.185949 0.000000 -0.982559
vn 0.185949 0.000000 -0.982559
vn 0.155586 0.055733 -0.986249
vn 0.155586 0.055733 -0.986249
vn 0.155586 0.055733 -0.986249
vn 0.000000 0.616393 -0.787439
vn 0.000000 0.616393 -0.787439
vn 0.000000 0.616393 -0.787439
vn 0.000000 0.616393 -0.787439
vn 0.000000 0.616393 -0.787439
vn 0.000000 0.000000 -1.000000
vn 0.000000 0.000000 -1.000000
vn 0.000000 0.000000 -1.000000
vn 0.000000 0.000000 -1.000000
vn 0.000000 0.000000 -1.000000
vn 0.000000 0.000000 -1.000000
vn 0.000000 0.000000 -1.000000
vn 0.000000 0.000000 -1.000000
vn -0.000000 0.000000 -1.000000
vn -0.000000 0.000000 -1.000000
vn -0.000000 0.000000 -1.000000
vn -0.000000 0.000000 -1.000000
vn -0.201707 -0.073633 -0.976674
vn -0.201707 -0.073633 -0.976674
vn -0.201707 -0.073633 -0.976674
vn -0.256921 0.000471 -0.966432
vn -0.256921 0.000471 -0.966432
vn -0.256921 0.000471 -0.966432
vn -0.256921 0.000471 -0.966432
vn -0.256921 0.000471 -0.966432
s 1
g pushbar
usemtl lambert3SG
f 10/68/1 9/69/2 11/70/3
f 12/71/4 10/72/1 11/73/3
f 13/74/5 12/75/4 11/76/3
f 14/77/6 13/78/5 11/79/3
f 15/80/7 14/81/6 11/82/3
f 16/83/8 15/84/7 11/85/3
f 17/86/9 16/87/8 11/88/3
f 9/89/2 17/90/9 11/9/3
s off
f 2/91/10 1/92/11 9/93/12 10/94/13
f 3/95/14 2/96/15 10/10/16 12/97/17
f 4/98/18 3/99/19 12/12/20 13/100/21
f 5/101/22 4/102/23 13/13/24 14/103/25
f 6/104/26 5/105/27 14/14/28 15/106/29
f 7/107/30 6/108/31 15/15/32 16/109/33
f 8/110/34 7/111/35 16/16/36 17/112/37
f 1/113/38 8/114/39 17/17/40 9/11/41
f 2/2/42 3/3/43 4/4/44 5/5/45 6/6/46 7/7/47 8/8/48 1/1/49
s 2
f 27/115/50 26/116/51 28/117/52
f 29/118/53 27/119/50 28/120/52
f 30/121/54 29/122/53 28/123/52
f 31/124/55 30/125/54 28/126/52
f 32/127/56 31/128/55 28/129/52
f 33/130/57 32/131/56 28/132/52
f 34/133/58 33/134/57 28/135/52
f 26/136/51 34/137/58 28/20/52
s off
f 19/138/59 18/139/60 26/140/61 27/141/62
f 20/142/63 19/143/64 27/18/65 29/144/66
f 21/145/67 20/146/68 29/21/69 30/147/70
f 22/148/71 21/149/72 30/22/73 31/150/74
f 23/151/75 22/152/76 31/23/77 32/153/78
f 24/154/79 23/155/80 32/24/81 33/156/82
f 25/157/83 24/158/84 33/25/85 34/159/86
f 18/160/87 25/161/88 34/26/89 26/19/90
f 19/27/91 20/29/92 21/30/93 22/31/94 23/32/95 24/33/96 25/34/97 18/28/98
f 35/162/99 36/163/100 38/164/101 37/165/102
f 37/166/103 38/167/104 40/168/105 39/169/106
f 56/170/107 46/171/108 48/172/109
f 41/173/110 42/174/111 36/46/112 35/47/113
f 36/36/114 42/48/115 40/49/116 38/37/117
f 41/50/118 35/35/119 37/38/120 39/51/121
f 41/175/122 47/176/123 8/177/124 25/178/125 43/179/126 42/180/127
f 55/181/128 43/182/129 45/183/130
f 44/184/131 21/185/132 40/186/133
f 43/187/134 25/188/135 45/189/136
f 46/190/137 4/191/138 48/192/139
f 49/193/140 8/194/141 47/195/142
f 2/196/143 51/197/144 8/198/145 49/199/146 56/200/147 48/43/148 4/201/149 50/202/150
f 2/203/151 54/204/152 53/205/153 51/206/154
f 55/207/155 45/57/156 25/208/157 53/209/158 54/210/159 52/211/160 21/212/161 44/213/162
f 42/45/163 43/55/164 55/214/165 40/215/166
f 40/216/167 55/56/168 44/58/169
f 39/217/170 40/39/171 21/218/172 4/219/173 46/220/174
f 25/54/175 8/53/176 51/63/177 53/66/178
f 4/60/179 21/59/180 52/221/181 50/222/182
f 52/67/183 54/65/184 2/62/185 50/64/186
f 47/223/187 56/224/188 49/61/189
f 39/40/190 46/42/191 56/41/192 47/52/193 41/44/194
