# This file uses centimeters as units for non-parametric coordinates.

mtllib steelCylinder.mtl
g default
v 0.939693 0.000000 -0.342020
v 0.766045 0.000000 -0.642787
v 0.500000 0.000000 -0.866025
v 0.173648 0.000000 -0.984808
v -0.173648 0.000000 -0.984808
v -0.500000 0.000000 -0.866026
v -0.766044 0.000000 -0.642788
v -0.939692 0.000000 -0.342020
v -1.000000 0.000000 -0.000000
v -0.939693 0.000000 0.342020
v -0.766045 0.000000 0.642787
v -0.500000 0.000000 0.866025
v -0.173648 0.000000 0.984808
v 0.173648 0.000000 0.984808
v 0.500000 0.000000 0.866025
v 0.766044 0.000000 0.642788
v 0.939693 0.000000 0.342020
v 1.000000 0.000000 0.000000
v 0.939693 1.000000 -0.342020
v 0.766045 1.000000 -0.642787
v 0.500000 1.000000 -0.866025
v 0.173648 1.000000 -0.984808
v -0.173648 1.000000 -0.984808
v -0.500000 1.000000 -0.866026
v -0.766044 1.000000 -0.642788
v -0.939692 1.000000 -0.342020
v -1.000000 1.000000 -0.000000
v -0.939693 1.000000 0.342020
v -0.766045 1.000000 0.642787
v -0.500000 1.000000 0.866025
v -0.173648 1.000000 0.984808
v 0.173648 1.000000 0.984808
v 0.500000 1.000000 0.866025
v 0.766044 1.000000 0.642788
v 0.939693 1.000000 0.342020
v 1.000000 1.000000 0.000000
v 0.000000 0.000000 0.000000
v 0.000000 1.000000 0.000000
vt 0.444225 0.387181
vt 0.432637 0.367110
vt 0.414883 0.352212
vt 0.393105 0.344286
vt 0.369929 0.344286
vt 0.348151 0.352212
vt 0.330397 0.367110
vt 0.318809 0.387181
vt 0.314784 0.410005
vt 0.318809 0.432828
vt 0.330397 0.452899
vt 0.348151 0.467797
vt 0.369929 0.475723
vt 0.393105 0.475723
vt 0.414884 0.467797
vt 0.432637 0.452899
vt 0.444225 0.432828
vt 0.448250 0.410005
vt 0.260358 0.358902
vt 0.264405 0.358902
vt 0.268452 0.358902
vt 0.272499 0.358902
vt 0.276546 0.358902
vt 0.280593 0.358902
vt 0.284640 0.358902
vt 0.288687 0.358902
vt 0.292734 0.358902
vt 0.296781 0.358902
vt 0.300828 0.358902
vt 0.304875 0.358902
vt 0.308922 0.358902
vt 0.312969 0.358902
vt 0.317016 0.358902
vt 0.321063 0.358902
vt 0.325110 0.358902
vt 0.329157 0.358902
vt 0.333204 0.358902
vt 0.260358 0.468446
vt 0.264405 0.468446
vt 0.268452 0.468446
vt 0.272499 0.468446
vt 0.276546 0.468446
vt 0.280593 0.468446
vt 0.284640 0.468446
vt 0.288687 0.468446
vt 0.292734 0.468446
vt 0.296781 0.468446
vt 0.300828 0.468446
vt 0.304875 0.468446
vt 0.308922 0.468446
vt 0.312969 0.468446
vt 0.317016 0.468446
vt 0.321063 0.468446
vt 0.325110 0.468446
vt 0.329157 0.468446
vt 0.333204 0.468446
vt 0.444225 0.387181
vt 0.432637 0.367110
vt 0.414883 0.352212
vt 0.393105 0.344286
vt 0.369929 0.344286
vt 0.348151 0.352212
vt 0.330397 0.367110
vt 0.318809 0.387181
vt 0.314784 0.410005
vt 0.318809 0.432828
vt 0.330397 0.452899
vt 0.348151 0.467797
vt 0.369929 0.475723
vt 0.393105 0.475723
vt 0.414884 0.467797
vt 0.432637 0.452899
vt 0.444225 0.432828
vt 0.448250 0.410005
vt 0.381517 0.407335
vt 0.381517 0.407335
vn 0.958142 0.000000 -0.286295
vn 0.802440 0.000000 -0.596733
vn 0.918006 0.000000 -0.396567
vn 0.727010 0.000000 -0.686627
vn 0.549952 0.000000 -0.835196
vn 0.448325 0.000000 -0.893871
vn 0.231132 0.000000 -0.972922
vn 0.115566 0.000000 -0.993300
vn -0.115566 0.000000 -0.993300
vn -0.231132 0.000000 -0.972923
vn -0.448325 0.000000 -0.893871
vn -0.549952 0.000000 -0.835196
vn -0.727009 0.000000 -0.686628
vn -0.802440 0.000000 -0.596733
vn -0.918006 0.000000 -0.396567
vn -0.958141 0.000000 -0.286295
vn -0.998277 0.000000 -0.058675
vn -0.998277 0.000000 0.058674
vn -0.958142 0.000000 0.286295
vn -0.918006 0.000000 0.396567
vn -0.802440 0.000000 0.596733
vn -0.727010 0.000000 0.686627
vn -0.549952 0.000000 0.835196
vn -0.448325 0.000000 0.893871
vn -0.231132 0.000000 0.972922
vn -0.115566 0.000000 0.993300
vn 0.115566 0.000000 0.993300
vn 0.231132 0.000000 0.972922
vn 0.448325 0.000000 0.893871
vn 0.549952 0.000000 0.835196
vn 0.727010 0.000000 0.686627
vn 0.802440 0.000000 0.596733
vn 0.918006 0.000000 0.396567
vn 0.958142 0.000000 0.286295
vn 0.998277 0.000000 0.058674
vn 0.998277 0.000000 -0.058674
vn 0.000000 -1.000000 0.000000
vn 0.000000 -1.000000 0.000000
vn 0.000000 -1.000000 0.000000
vn 0.000000 -1.000000 0.000000
vn 0.000000 -1.000000 0.000000
vn 0.000000 -1.000000 0.000000
vn 0.000000 -1.000000 0.000000
vn 0.000000 -1.000000 0.000000
vn 0.000000 -1.000000 0.000000
vn 0.000000 -1.000000 0.000000
vn 0.000000 -1.000000 0.000000
vn 0.000000 -1.000000 0.000000
vn 0.000000 -1.000000 0.000000
vn 0.000000 -1.000000 0.000000
vn 0.000000 -1.000000 0.000000
vn 0.000000 -1.000000 0.000000
vn 0.000000 -1.000000 0.000000
vn 0.000000 -1.000000 0.000000
vn 0.000000 -1.000000 0.000000
vn 0.000000 1.000000 0.000000
vn 0.000000 1.000000 0.000000
vn 0.000000 1.000000 -0.000000
vn 0.000000 1.000000 0.000000
vn 0.000000 1.000000 -0.000000
vn 0.000000 1.000000 -0.000000
vn 0.000000 1.000000 0.000000
vn 0.000000 1.000000 0.000000
vn 0.000000 1.000000 0.000000
vn 0.000000 1.000000 0.000000
vn 0.000000 1.000000 0.000000
vn 0.000000 1.000000 0.000000
vn 0.000000 1.000000 0.000000
vn 0.000000 1.000000 0.000000
vn 0.000000 1.000000 0.000000
vn 0.000000 1.000000 0.000000
vn 0.000000 1.000000 0.000000
vn 0.000000 1.000000 0.000000
vn 0.000000 1.000000 0.000000
s 1
g pCylinder12
usemtl lambert2SG
f 1/19/1 2/20/2 19/38/3
f 19/38/3 2/20/2 20/39/4
f 2/20/2 3/21/5 20/39/4
f 20/39/4 3/21/5 21/40/6
f 3/21/5 4/22/7 21/40/6
f 21/40/6 4/22/7 22/41/8
f 4/22/7 5/23/9 22/41/8
f 22/41/8 5/23/9 23/42/10
f 5/23/9 6/24/11 23/42/10
f 23/42/10 6/24/11 24/43/12
f 6/24/11 7/25/13 24/43/12
f 24/43/12 7/25/13 25/44/14
f 7/25/13 8/26/15 25/44/14
f 25/44/14 8/26/15 26/45/16
f 8/26/15 9/27/17 26/45/16
f 26/45/16 9/27/17 27/46/18
f 9/27/17 10/28/19 27/46/18
f 27/46/18 10/28/19 28/47/20
f 10/28/19 11/29/21 28/47/20
f 28/47/20 11/29/21 29/48/22
f 11/29/21 12/30/23 29/48/22
f 29/48/22 12/30/23 30/49/24
f 12/30/23 13/31/25 30/49/24
f 30/49/24 13/31/25 31/50/26
f 13/31/25 14/32/27 31/50/26
f 31/50/26 14/32/27 32/51/28
f 14/32/27 15/33/29 32/51/28
f 32/51/28 15/33/29 33/52/30
f 15/33/29 16/34/31 33/52/30
f 33/52/30 16/34/31 34/53/32
f 16/34/31 17/35/33 34/53/32
f 34/53/32 17/35/33 35/54/34
f 17/35/33 18/36/35 35/54/34
f 35/54/34 18/36/35 36/55/36
f 18/36/35 1/37/1 36/55/36
f 36/55/36 1/37/1 19/56/3
s 2
f 2/2/37 1/1/38 37/75/39
f 3/3/40 2/2/37 37/75/39
f 4/4/41 3/3/40 37/75/39
f 5/5/42 4/4/41 37/75/39
f 6/6/43 5/5/42 37/75/39
f 7/7/44 6/6/43 37/75/39
f 8/8/45 7/7/44 37/75/39
f 9/9/46 8/8/45 37/75/39
f 10/10/47 9/9/46 37/75/39
f 11/11/48 10/10/47 37/75/39
f 12/12/49 11/11/48 37/75/39
f 13/13/50 12/12/49 37/75/39
f 14/14/51 13/13/50 37/75/39
f 15/15/52 14/14/51 37/75/39
f 16/16/53 15/15/52 37/75/39
f 17/17/54 16/16/53 37/75/39
f 18/18/55 17/17/54 37/75/39
f 1/1/38 18/18/55 37/75/39
s 3
f 19/73/56 20/72/57 38/76/58
f 20/72/57 21/71/59 38/76/58
f 21/71/59 22/70/60 38/76/58
f 22/70/60 23/69/61 38/76/58
f 23/69/61 24/68/62 38/76/58
f 24/68/62 25/67/63 38/76/58
f 25/67/63 26/66/64 38/76/58
f 26/66/64 27/65/65 38/76/58
f 27/65/65 28/64/66 38/76/58
f 28/64/66 29/63/67 38/76/58
f 29/63/67 30/62/68 38/76/58
f 30/62/68 31/61/69 38/76/58
f 31/61/69 32/60/70 38/76/58
f 32/60/70 33/59/71 38/76/58
f 33/59/71 34/58/72 38/76/58
f 34/58/72 35/57/73 38/76/58
f 35/57/73 36/74/74 38/76/58
f 36/74/74 19/73/56 38/76/58
