# This file uses centimeters as units for non-parametric coordinates.

mtllib zaag.mtl
g default
v 2.748627 1.223464 -0.038049
v 2.849828 1.601154 -0.038049
v 2.815749 1.990678 -0.038049
v 2.650500 2.345056 -0.038049
v 2.374013 2.621544 -0.038049
v 2.019635 2.786793 -0.038049
v 1.630111 2.820872 -0.038049
v 1.252421 2.719671 -0.038049
v 0.932122 2.495395 -0.038049
v 0.707847 2.175097 -0.038049
v 0.606645 1.797407 -0.038049
v 0.640724 1.407883 -0.038049
v 0.805973 1.053505 -0.038049
v 1.082461 0.777017 -0.038049
v 1.436838 0.611768 -0.038049
v 1.826363 0.577689 -0.038049
v 2.204052 0.678890 -0.038049
v 2.524351 0.903166 -0.038049
v 2.748627 1.223464 0.038049
v 2.849828 1.601154 0.038049
v 2.815749 1.990678 0.038049
v 2.650500 2.345056 0.038049
v 2.374013 2.621544 0.038049
v 2.019635 2.786793 0.038049
v 1.630111 2.820872 0.038049
v 1.252421 2.719671 0.038049
v 0.932122 2.495395 0.038049
v 0.707847 2.175097 0.038049
v 0.606645 1.797407 0.038049
v 0.640724 1.407883 0.038049
v 0.805973 1.053505 0.038049
v 1.082461 0.777017 0.038049
v 1.436838 0.611768 0.038049
v 1.826363 0.577689 0.038049
v 2.204052 0.678890 0.038049
v 2.524351 0.903166 0.038049
v 1.728237 1.699281 -0.038049
v 1.728237 1.699281 0.038049
vt 0.709059 0.837461
vt 0.717476 0.868876
vt 0.717476 0.868876
vt 0.709059 0.837461
vt 0.714642 0.901275
vt 0.714642 0.901275
vt 0.700897 0.930751
vt 0.700897 0.930751
vt 0.677900 0.953748
vt 0.677900 0.953748
vt 0.648424 0.967493
vt 0.648424 0.967493
vt 0.616025 0.970327
vt 0.616025 0.970327
vt 0.584610 0.961910
vt 0.584610 0.961910
vt 0.557969 0.943256
vt 0.557969 0.943256
vt 0.539315 0.916614
vt 0.539315 0.916614
vt 0.530897 0.885200
vt 0.530897 0.885200
vt 0.533732 0.852801
vt 0.533732 0.852801
vt 0.547476 0.823325
vt 0.547476 0.823325
vt 0.570474 0.800328
vt 0.570474 0.800328
vt 0.599949 0.786583
vt 0.599949 0.786583
vt 0.632348 0.783748
vt 0.632348 0.783748
vt 0.663763 0.792166
vt 0.663763 0.792166
vt 0.690404 0.810820
vt 0.690404 0.810820
vt 0.624187 0.877038
vt 0.624187 0.877038
vn 0.906308 -0.422618 0.000000
vn 0.996195 -0.087156 0.000000
vn 0.996195 -0.087156 0.000000
vn 0.906308 -0.422618 0.000000
vn 0.965926 0.258819 0.000000
vn 0.965926 0.258819 0.000000
vn 0.819152 0.573576 0.000000
vn 0.819152 0.573576 0.000000
vn 0.573577 0.819152 0.000000
vn 0.573577 0.819152 0.000000
vn 0.258819 0.965926 0.000000
vn 0.258819 0.965926 0.000000
vn -0.087156 0.996195 0.000000
vn -0.087156 0.996195 0.000000
vn -0.422618 0.906308 0.000000
vn -0.422618 0.906308 0.000000
vn -0.707107 0.707107 0.000000
vn -0.707107 0.707107 0.000000
vn -0.906308 0.422618 0.000000
vn -0.906308 0.422618 0.000000
vn -0.996195 0.087156 0.000000
vn -0.996195 0.087156 0.000000
vn -0.965926 -0.258819 0.000000
vn -0.965926 -0.258819 0.000000
vn -0.819152 -0.573577 0.000000
vn -0.819152 -0.573577 0.000000
vn -0.573577 -0.819152 0.000000
vn -0.573577 -0.819152 0.000000
vn -0.258819 -0.965926 0.000000
vn -0.258819 -0.965926 0.000000
vn 0.087156 -0.996195 0.000000
vn 0.087156 -0.996195 0.000000
vn 0.422618 -0.906308 0.000000
vn 0.422618 -0.906308 0.000000
vn 0.707107 -0.707107 0.000000
vn 0.707107 -0.707107 0.000000
vn 0.000000 -0.000000 -1.000000
vn 0.000000 0.000000 -1.000000
vn -0.000000 0.000000 -1.000000
vn 0.000000 -0.000000 -1.000000
vn -0.000000 0.000000 -1.000000
vn 0.000000 -0.000000 -1.000000
vn 0.000000 -0.000000 -1.000000
vn -0.000000 0.000000 -1.000000
vn 0.000000 -0.000000 -1.000000
vn -0.000000 0.000000 -1.000000
vn 0.000000 0.000000 -1.000000
vn 0.000000 0.000000 -1.000000
vn 0.000000 0.000000 -1.000000
vn 0.000000 0.000000 -1.000000
vn -0.000000 0.000000 -1.000000
vn -0.000000 0.000000 -1.000000
vn 0.000000 -0.000000 -1.000000
vn -0.000000 0.000000 -1.000000
vn 0.000000 -0.000000 -1.000000
vn -0.000000 0.000000 1.000000
vn 0.000000 -0.000000 1.000000
vn -0.000000 0.000000 1.000000
vn -0.000000 0.000000 1.000000
vn -0.000000 0.000000 1.000000
vn 0.000000 -0.000000 1.000000
vn 0.000000 -0.000000 1.000000
vn 0.000000 -0.000000 1.000000
vn 0.000000 -0.000000 1.000000
vn 0.000000 -0.000000 1.000000
vn 0.000000 -0.000000 1.000000
vn 0.000000 0.000000 1.000000
vn 0.000000 0.000000 1.000000
vn 0.000000 0.000000 1.000000
vn -0.000000 0.000000 1.000000
vn -0.000000 0.000000 1.000000
vn -0.000000 0.000000 1.000000
vn -0.000000 0.000000 1.000000
vn -0.000000 0.000000 1.000000
s 1
g zaag polySurface3
usemtl lambert3SG
f 1/1/1 2/2/2 20/3/3 19/4/4
f 2/2/2 3/5/5 21/6/6 20/3/3
f 3/5/5 4/7/7 22/8/8 21/6/6
f 4/7/7 5/9/9 23/10/10 22/8/8
f 5/9/9 6/11/11 24/12/12 23/10/10
f 6/11/11 7/13/13 25/14/14 24/12/12
f 7/13/13 8/15/15 26/16/16 25/14/14
f 8/15/15 9/17/17 27/18/18 26/16/16
f 9/17/17 10/19/19 28/20/20 27/18/18
f 10/19/19 11/21/21 29/22/22 28/20/20
f 11/21/21 12/23/23 30/24/24 29/22/22
f 12/23/23 13/25/25 31/26/26 30/24/24
f 13/25/25 14/27/27 32/28/28 31/26/26
f 14/27/27 15/29/29 33/30/30 32/28/28
f 15/29/29 16/31/31 34/32/32 33/30/30
f 16/31/31 17/33/33 35/34/34 34/32/32
f 17/33/33 18/35/35 36/36/36 35/34/34
f 18/35/35 1/1/1 19/4/4 36/36/36
s 2
f 2/2/37 1/1/38 37/37/39
f 3/5/40 2/2/37 37/37/39
f 4/7/41 3/5/40 37/37/39
f 5/9/42 4/7/41 37/37/39
f 6/11/43 5/9/42 37/37/39
f 7/13/44 6/11/43 37/37/39
f 8/15/45 7/13/44 37/37/39
f 9/17/46 8/15/45 37/37/39
f 10/19/47 9/17/46 37/37/39
f 11/21/48 10/19/47 37/37/39
f 12/23/49 11/21/48 37/37/39
f 13/25/50 12/23/49 37/37/39
f 14/27/51 13/25/50 37/37/39
f 15/29/52 14/27/51 37/37/39
f 16/31/53 15/29/52 37/37/39
f 17/33/54 16/31/53 37/37/39
f 18/35/55 17/33/54 37/37/39
f 1/1/38 18/35/55 37/37/39
s 3
f 19/4/56 20/3/57 38/38/58
f 20/3/57 21/6/59 38/38/58
f 21/6/59 22/8/60 38/38/58
f 22/8/60 23/10/61 38/38/58
f 23/10/61 24/12/62 38/38/58
f 24/12/62 25/14/63 38/38/58
f 25/14/63 26/16/64 38/38/58
f 26/16/64 27/18/65 38/38/58
f 27/18/65 28/20/66 38/38/58
f 28/20/66 29/22/67 38/38/58
f 29/22/67 30/24/68 38/38/58
f 30/24/68 31/26/69 38/38/58
f 31/26/69 32/28/70 38/38/58
f 32/28/70 33/30/71 38/38/58
f 33/30/71 34/32/72 38/38/58
f 34/32/72 35/34/73 38/38/58
f 35/34/73 36/36/74 38/38/58
f 36/36/74 19/4/56 38/38/58
