# This file uses centimeters as units for non-parametric coordinates.

mtllib aluPenta.mtl
g default
v 0.369347 0.000000 -0.877085
v -0.809017 0.000000 -0.803306
v -0.809017 0.000000 0.803306
v 0.369347 0.000000 0.877085
v 1.000000 0.000000 0.000000
v 0.369347 1.000000 -0.877085
v -0.809017 1.000000 -0.803306
v -0.809017 1.000000 0.803306
v 0.369347 1.000000 0.877085
v 1.000000 1.000000 0.000000
vt 0.744992 0.331573
vt 0.653911 0.212346
vt 0.653911 0.450799
vt 0.506539 0.257887
vt 0.506539 0.405259
vt 0.746391 0.458695
vt 0.746391 0.458695
vt 0.746391 0.458695
vt 0.746391 0.458695
vt 0.746391 0.458695
vt 0.746391 0.699665
vt 0.502048 0.699665
vt 0.653911 0.450799
vt 0.506539 0.405259
vt 0.744992 0.331573
vt 0.506539 0.257887
vt 0.653911 0.212346
vt 0.502048 0.458695
vt 0.746391 0.699665
vt 0.502048 0.699665
vt 0.502048 0.458695
vt 0.746391 0.699665
vt 0.502048 0.699665
vt 0.502048 0.458695
vt 0.746391 0.699665
vt 0.502048 0.699665
vt 0.502048 0.458695
vt 0.746391 0.699665
vt 0.502048 0.699665
vt 0.502048 0.458695
vn -0.062489 0.000000 -0.998046
vn -0.062489 0.000000 -0.998046
vn -0.062489 0.000000 -0.998046
vn -0.062489 0.000000 -0.998046
vn -1.000000 0.000000 -0.000000
vn -1.000000 0.000000 -0.000000
vn -1.000000 0.000000 -0.000000
vn -1.000000 0.000000 -0.000000
vn -0.062489 0.000000 0.998046
vn -0.062489 0.000000 0.998046
vn -0.062489 0.000000 0.998046
vn -0.062489 0.000000 0.998046
vn 0.811906 0.000000 0.583788
vn 0.811906 0.000000 0.583788
vn 0.811906 0.000000 0.583788
vn 0.811906 0.000000 0.583788
vn 0.811907 0.000000 -0.583787
vn 0.811907 0.000000 -0.583787
vn 0.811907 0.000000 -0.583787
vn 0.811907 0.000000 -0.583787
vn 0.000000 -1.000000 0.000000
vn 0.000000 -1.000000 0.000000
vn 0.000000 -1.000000 0.000000
vn 0.000000 -1.000000 0.000000
vn 0.000000 -1.000000 0.000000
vn 0.000000 1.000000 0.000000
vn 0.000000 1.000000 0.000000
vn 0.000000 1.000000 0.000000
vn 0.000000 1.000000 0.000000
vn 0.000000 1.000000 0.000000
s off
g aluPenta
usemtl lambert3SG
f 6/18/1 1/6/2 2/19/3 7/20/4
f 7/21/5 2/7/6 3/22/7 8/23/8
f 8/24/9 3/8/10 4/25/11 9/26/12
f 9/27/13 4/9/14 5/28/15 10/29/16
f 10/30/17 5/10/18 1/11/19 6/12/20
s 1
f 4/1/21 3/2/22 5/3/23
f 3/2/22 2/4/24 5/3/23
f 2/4/24 1/5/25 5/3/23
s 2
f 10/13/26 6/14/27 9/15/28
f 6/14/27 7/16/29 9/15/28
f 7/16/29 8/17/30 9/15/28
