# This file uses centimeters as units for non-parametric coordinates.

mtllib carbonTriangle.mtl
g default
v -0.783087 0.000000 -0.866025
v -0.783087 0.000000 0.866025
v 1.000000 0.000000 0.000000
v -0.312592 1.000000 -0.322745
v -0.312592 1.000000 0.322745
v 0.529505 1.000000 0.000000
v -0.581988 0.895385 -0.633817
v -0.581988 0.895385 0.633817
v 0.798901 0.895385 0.000000
v -0.705304 0.813428 -0.776209
v -0.705304 0.813428 0.776209
v 0.922217 0.813428 0.000000
v -0.783087 0.627365 -0.866025
v -0.783087 0.627365 0.866025
v 1.000000 0.627365 0.000000
v 0.303970 0.000000 0.507081
v 0.303970 0.000000 -0.507081
v 0.303970 1.000000 0.129659
v 0.303970 1.000000 -0.129659
v 0.303970 0.895385 0.340754
v 0.303970 0.895385 -0.340754
v 0.303970 0.813428 0.442288
v 0.303970 0.813428 -0.442288
v 0.303970 0.627365 0.507081
v 0.303970 0.627365 -0.507081
vt 0.753192 0.002071
vt 0.753192 0.246198
vt 0.997319 0.124134
vt 0.998554 0.458695
vt 0.998554 0.458695
vt 0.998554 0.458695
vt 0.998554 0.699665
vt 0.754211 0.458695
vt 0.754211 0.458695
vt 0.754211 0.458695
vt 0.754211 0.699665
vt 0.997319 0.124134
vt 0.753192 0.246198
vt 0.753192 0.002071
vt 0.998554 0.699665
vt 0.754211 0.699665
vt 0.998554 0.699665
vt 0.754211 0.699665
vt 0.779773 0.699665
vt 0.779773 0.458695
vt 0.779773 0.699665
vt 0.779773 0.458695
vt 0.779773 0.699665
vt 0.779773 0.458695
vt 0.799798 0.699665
vt 0.799798 0.458695
vt 0.799798 0.699665
vt 0.799798 0.458695
vt 0.799798 0.699665
vt 0.799798 0.458695
vt 0.845262 0.699665
vt 0.845262 0.458695
vt 0.845262 0.699665
vt 0.845262 0.458695
vt 0.845262 0.699665
vt 0.845262 0.458695
vt 0.998554 0.605602
vt 0.902024 0.076487
vt 0.998554 0.552758
vt 0.902024 0.171782
vt 0.931935 0.091442
vt 0.754211 0.635127
vt 0.931935 0.156826
vt 0.754211 0.523233
vt 0.779773 0.613298
vt 0.779773 0.545062
vt 0.799798 0.608128
vt 0.799798 0.550232
vt 0.845262 0.605602
vt 0.845262 0.552758
vn -0.361994 0.932180 0.000000
vn -0.460441 0.887690 0.000000
vn -0.460441 0.887690 0.000000
vn -0.361994 0.932180 0.000000
vn 0.138887 0.892442 0.429252
vn 0.172349 0.833015 0.525721
vn 0.267796 0.804575 0.530042
vn 0.218496 0.869339 0.443294
vn 0.296561 0.840091 -0.454202
vn 0.360625 0.768121 -0.529093
vn 0.267796 0.804575 -0.530042
vn 0.218496 0.869339 -0.443294
vn 0.000000 -1.000000 0.000000
vn 0.000000 -1.000000 0.000000
vn 0.000000 -1.000000 0.000000
vn 0.000000 -1.000000 0.000000
vn 0.000000 1.000000 0.000000
vn 0.000000 1.000000 0.000000
vn 0.000000 1.000000 0.000000
vn -0.771187 0.636609 0.000000
vn -0.771187 0.636609 0.000000
vn 0.360625 0.768121 0.529093
vn 0.388402 0.526017 0.756604
vn 0.508366 0.484640 0.711820
vn 0.172349 0.833015 -0.525721
vn 0.388402 0.526017 -0.756604
vn 0.260495 0.558056 -0.787855
vn -0.980465 0.196693 0.000000
vn -0.980465 0.196693 0.000000
vn 0.451645 0.145016 0.880334
vn 0.582360 0.128484 0.802713
vn 0.451645 0.145016 -0.880334
vn 0.309728 0.158206 -0.937571
vn -1.000000 0.000000 0.000000
vn -1.000000 0.000000 0.000000
vn 0.456692 0.000000 0.889625
vn 0.588838 0.000000 0.808251
vn 0.456692 0.000000 -0.889625
vn 0.313547 0.000000 -0.949573
vn 0.296561 0.840091 0.454202
vn 0.138887 0.892442 -0.429252
vn 0.000000 -1.000000 0.000000
vn 0.000000 1.000000 0.000000
vn 0.000000 1.000000 0.000000
vn 0.260495 0.558056 0.787855
vn 0.508366 0.484640 -0.711820
vn 0.309728 0.158206 0.937571
vn 0.582360 0.128484 -0.802713
vn 0.313547 0.000000 0.949573
vn 0.588838 0.000000 -0.808251
s 1
g carbonTriangle
usemtl lambert3SG
f 4/8/1 7/20/2 8/21/3 5/16/4
s 2
f 5/9/5 8/22/6 20/45/7 18/42/8
s 3
f 6/10/9 9/24/10 21/46/11 19/44/12
s 4
f 2/1/13 1/2/14 17/40/15 16/38/16
s 5
f 6/12/17 19/43/18 18/41/19
s 1
f 8/21/3 7/20/2 10/26/20 11/27/21
s 2
f 9/23/22 20/45/7 22/47/23 12/29/24
s 3
f 7/19/25 21/46/11 23/48/26 10/25/27
s 1
f 11/27/21 10/26/20 13/32/28 14/33/29
s 2
f 12/29/24 22/47/23 24/49/30 15/35/31
s 3
f 10/25/27 23/48/26 25/50/32 13/31/33
s 1
f 14/33/29 13/32/28 1/4/34 2/15/35
s 2
f 15/35/31 24/49/30 16/37/36 3/17/37
s 3
f 13/31/33 25/50/32 17/39/38 1/7/39
s 2
f 18/42/8 20/45/7 9/23/22 6/18/40
s 3
f 19/44/12 21/46/11 7/19/25 4/11/41
s 4
f 16/38/16 17/40/15 3/3/42
s 5
f 18/41/19 19/43/18 4/13/43 5/14/44
s 2
f 22/47/23 20/45/7 8/22/6 11/28/45
s 3
f 23/48/26 21/46/11 9/24/10 12/30/46
s 2
f 24/49/30 22/47/23 11/28/45 14/34/47
s 3
f 25/50/32 23/48/26 12/30/46 15/36/48
s 2
f 16/37/36 24/49/30 14/34/47 2/5/49
s 3
f 17/39/38 25/50/32 15/36/48 3/6/50
