# This file uses centimeters as units for non-parametric coordinates.

mtllib carbonCube.mtl
g default
v -0.750000 -0.000000 0.750000
v 0.750000 -0.000000 0.750000
v -0.750000 1.000000 0.750000
v 0.750000 1.000000 0.750000
v -0.750000 1.000000 -0.750000
v 0.750000 1.000000 -0.750000
v -0.750000 -0.000000 -0.750000
v 0.750000 -0.000000 -0.750000
vt 0.923854 0.336147
vt 0.787619 0.336147
vt 0.923854 0.472382
vt 0.787619 0.472382
vt 0.787619 0.336147
vt 0.923854 0.336147
vt 0.787619 0.336147
vt 0.923854 0.336147
vt 0.787619 0.472382
vt 0.923854 0.472382
vt 0.923854 0.336147
vt 0.923854 0.472382
vt 0.787619 0.336147
vt 0.787619 0.472382
vt 0.787619 0.336147
vt 0.923854 0.336147
vt 0.923854 0.472382
vt 0.787619 0.472382
vt 0.787619 0.336147
vt 0.923854 0.336147
vt 0.923854 0.472382
vt 0.787619 0.472382
vt 0.923854 0.472382
vt 0.787619 0.472382
vn 0.000000 0.000000 1.000000
vn 0.000000 0.000000 1.000000
vn 0.000000 0.000000 1.000000
vn 0.000000 0.000000 1.000000
vn 0.000000 1.000000 0.000000
vn 0.000000 1.000000 0.000000
vn 0.000000 1.000000 0.000000
vn 0.000000 1.000000 0.000000
vn 0.000000 0.000000 -1.000000
vn 0.000000 0.000000 -1.000000
vn 0.000000 0.000000 -1.000000
vn 0.000000 0.000000 -1.000000
vn 0.000000 -1.000000 0.000000
vn 0.000000 -1.000000 0.000000
vn 0.000000 -1.000000 0.000000
vn 0.000000 -1.000000 0.000000
vn 1.000000 0.000000 0.000000
vn 1.000000 0.000000 0.000000
vn 1.000000 0.000000 0.000000
vn 1.000000 0.000000 0.000000
vn -1.000000 0.000000 0.000000
vn -1.000000 0.000000 0.000000
vn -1.000000 0.000000 0.000000
vn -1.000000 0.000000 0.000000
s 1
g pCube2
usemtl lambert2SG
f 1/15/1 2/16/2 3/18/3
f 3/18/3 2/16/2 4/17/4
s 2
f 3/19/5 4/20/6 5/22/7
f 5/22/7 4/20/6 6/21/8
s 3
f 5/5/9 6/6/10 7/24/11
f 7/24/11 6/6/10 8/23/12
s 4
f 7/7/13 8/8/14 1/9/15
f 1/9/15 8/8/14 2/10/16
s 5
f 2/2/17 8/11/18 4/4/19
f 4/4/19 8/11/18 6/12/20
s 6
f 7/13/21 1/1/22 5/14/23
f 5/14/23 1/1/22 3/3/24
