# This file uses centimeters as units for non-parametric coordinates.

mtllib cylinder.mtl
g default
v 0.939693 0.000000 -0.342020
v 0.766045 0.000000 -0.642787
v 0.500000 0.000000 -0.866025
v 0.173648 0.000000 -0.984808
v -0.173648 0.000000 -0.984808
v -0.500000 0.000000 -0.866026
v -0.766044 0.000000 -0.642788
v -0.939692 0.000000 -0.342020
v -1.000000 0.000000 -0.000000
v -0.939693 0.000000 0.342020
v -0.766045 0.000000 0.642787
v -0.500000 0.000000 0.866025
v -0.173648 0.000000 0.984808
v 0.173648 0.000000 0.984808
v 0.500000 0.000000 0.866025
v 0.766044 0.000000 0.642788
v 0.939693 0.000000 0.342020
v 1.000000 0.000000 0.000000
v 0.939693 0.148771 -0.342020
v 0.766045 0.148771 -0.642787
v 0.500000 0.148771 -0.866025
v 0.173648 0.148771 -0.984808
v -0.173648 0.148771 -0.984808
v -0.500000 0.148771 -0.866026
v -0.766044 0.148771 -0.642788
v -0.939692 0.148771 -0.342020
v -1.000000 0.148771 -0.000000
v -0.939693 0.148771 0.342020
v -0.766045 0.148771 0.642787
v -0.500000 0.148771 0.866025
v -0.173648 0.148771 0.984808
v 0.173648 0.148771 0.984808
v 0.500000 0.148771 0.866025
v 0.766044 0.148771 0.642788
v 0.939693 0.148771 0.342020
v 1.000000 0.148771 0.000000
v 0.000000 0.000000 0.000000
v 0.000000 0.148771 0.000000
vt 0.513290 0.610588
vt 0.592114 0.610588
vt 0.592114 0.610588
vt 0.592114 0.610588
vt 0.592114 0.610588
vt 0.592114 0.610588
vt 0.592114 0.610588
vt 0.592114 0.610588
vt 0.592114 0.610588
vt 0.592114 0.610588
vt 0.592114 0.610588
vt 0.592114 0.610588
vt 0.592114 0.610588
vt 0.592114 0.610588
vt 0.592114 0.610588
vt 0.592114 0.610588
vt 0.592114 0.610588
vt 0.592114 0.610588
vt 0.513290 0.610588
vt 0.513290 0.610588
vt 0.513290 0.610588
vt 0.513290 0.610588
vt 0.513290 0.610588
vt 0.513290 0.610588
vt 0.513290 0.610588
vt 0.513290 0.610588
vt 0.513290 0.610588
vt 0.513290 0.610588
vt 0.513290 0.610588
vt 0.513290 0.610588
vt 0.513290 0.610588
vt 0.513290 0.610588
vt 0.513290 0.610588
vt 0.513290 0.610588
vt 0.513290 0.610588
vt 0.513290 0.610588
vt 0.592114 0.610588
vt 0.513290 0.689412
vt 0.513290 0.689412
vt 0.513290 0.689412
vt 0.513290 0.689412
vt 0.513290 0.689412
vt 0.513290 0.689412
vt 0.513290 0.689412
vt 0.513290 0.689412
vt 0.513290 0.689412
vt 0.513290 0.689412
vt 0.513290 0.689412
vt 0.513290 0.689412
vt 0.513290 0.689412
vt 0.513290 0.689412
vt 0.513290 0.689412
vt 0.513290 0.689412
vt 0.513290 0.689412
vt 0.513290 0.689412
vt 0.592114 0.689412
vt 0.513290 0.610588
vt 0.513290 0.610588
vt 0.513290 0.610588
vt 0.513290 0.610588
vt 0.513290 0.610588
vt 0.513290 0.610588
vt 0.513290 0.610588
vt 0.513290 0.610588
vt 0.513290 0.610588
vt 0.513290 0.610588
vt 0.513290 0.610588
vt 0.513290 0.610588
vt 0.513290 0.610588
vt 0.513290 0.610588
vt 0.513290 0.610588
vt 0.513290 0.610588
vt 0.592114 0.610588
vt 0.513290 0.610588
vt 0.592114 0.689412
vt 0.592114 0.689412
vt 0.592114 0.610588
vt 0.592114 0.689412
vt 0.592114 0.610588
vt 0.592114 0.689412
vt 0.592114 0.610588
vt 0.592114 0.689412
vt 0.592114 0.610588
vt 0.592114 0.689412
vt 0.592114 0.610588
vt 0.592114 0.689412
vt 0.592114 0.610588
vt 0.592114 0.689412
vt 0.592114 0.610588
vt 0.592114 0.689412
vt 0.592114 0.610588
vt 0.592114 0.689412
vt 0.592114 0.610588
vt 0.592114 0.689412
vt 0.592114 0.610588
vt 0.592114 0.689412
vt 0.592114 0.610588
vt 0.592114 0.689412
vt 0.592114 0.610588
vt 0.592114 0.689412
vt 0.592114 0.610588
vt 0.592114 0.689412
vt 0.592114 0.610588
vt 0.592114 0.689412
vt 0.592114 0.610588
vt 0.592114 0.689412
vt 0.592114 0.610588
vt 0.592114 0.689412
vt 0.592114 0.610588
vt 0.592114 0.689412
vt 0.513290 0.610588
vt 0.592114 0.610588
vt 0.592114 0.689412
vt 0.513290 0.610588
vt 0.592114 0.689412
vt 0.513290 0.610588
vt 0.592114 0.689412
vt 0.513290 0.610588
vt 0.592114 0.689412
vt 0.513290 0.610588
vt 0.592114 0.689412
vt 0.513290 0.610588
vt 0.592114 0.689412
vt 0.513290 0.610588
vt 0.592114 0.689412
vt 0.513290 0.610588
vt 0.592114 0.689412
vt 0.513290 0.610588
vt 0.592114 0.689412
vt 0.513290 0.610588
vt 0.592114 0.689412
vt 0.513290 0.610588
vt 0.592114 0.689412
vt 0.513290 0.610588
vt 0.592114 0.689412
vt 0.513290 0.610588
vt 0.592114 0.689412
vt 0.513290 0.610588
vt 0.592114 0.689412
vt 0.513290 0.610588
vt 0.592114 0.689412
vt 0.513290 0.610588
vt 0.592114 0.689412
vt 0.513290 0.610588
vt 0.592114 0.689412
vt 0.513290 0.610588
vt 0.592114 0.610588
vt 0.592114 0.689412
vt 0.592114 0.610588
vt 0.592114 0.689412
vt 0.592114 0.610588
vt 0.592114 0.689412
vt 0.592114 0.610588
vt 0.592114 0.689412
vt 0.592114 0.610588
vt 0.592114 0.689412
vt 0.592114 0.610588
vt 0.592114 0.689412
vt 0.592114 0.610588
vt 0.592114 0.689412
vt 0.592114 0.610588
vt 0.592114 0.689412
vt 0.592114 0.610588
vt 0.592114 0.689412
vt 0.592114 0.610588
vt 0.592114 0.689412
vt 0.592114 0.610588
vt 0.592114 0.689412
vt 0.592114 0.610588
vt 0.592114 0.689412
vt 0.592114 0.610588
vt 0.592114 0.689412
vt 0.592114 0.610588
vt 0.592114 0.689412
vt 0.592114 0.610588
vt 0.592114 0.689412
vt 0.592114 0.610588
vt 0.592114 0.689412
vt 0.592114 0.610588
vt 0.592114 0.689412
vn 0.958142 0.000000 -0.286295
vn 0.802440 0.000000 -0.596733
vn 0.918006 0.000000 -0.396567
vn 0.727010 0.000000 -0.686627
vn 0.549952 0.000000 -0.835196
vn 0.448325 0.000000 -0.893871
vn 0.231132 0.000000 -0.972922
vn 0.115566 0.000000 -0.993300
vn -0.115566 0.000000 -0.993300
vn -0.231132 0.000000 -0.972923
vn -0.448325 0.000000 -0.893871
vn -0.549952 0.000000 -0.835196
vn -0.727009 0.000000 -0.686628
vn -0.802440 0.000000 -0.596733
vn -0.918006 0.000000 -0.396567
vn -0.958141 0.000000 -0.286295
vn -0.998277 0.000000 -0.058675
vn -0.998277 0.000000 0.058674
vn -0.958142 0.000000 0.286295
vn -0.918006 0.000000 0.396567
vn -0.802440 0.000000 0.596733
vn -0.727010 0.000000 0.686627
vn -0.549952 0.000000 0.835196
vn -0.448325 0.000000 0.893871
vn -0.231132 0.000000 0.972922
vn -0.115566 0.000000 0.993300
vn 0.115566 0.000000 0.993300
vn 0.231132 0.000000 0.972923
vn 0.448325 0.000000 0.893871
vn 0.549952 0.000000 0.835196
vn 0.727010 0.000000 0.686627
vn 0.802440 0.000000 0.596733
vn 0.918006 0.000000 0.396567
vn 0.958142 0.000000 0.286295
vn 0.998277 0.000000 0.058674
vn 0.998277 0.000000 -0.058674
vn 0.000000 -1.000000 0.000000
vn 0.000000 -1.000000 0.000000
vn 0.000000 -1.000000 0.000000
vn 0.000000 -1.000000 0.000000
vn 0.000000 -1.000000 0.000000
vn 0.000000 -1.000000 0.000000
vn 0.000000 -1.000000 0.000000
vn 0.000000 -1.000000 0.000000
vn 0.000000 -1.000000 0.000000
vn 0.000000 -1.000000 0.000000
vn 0.000000 -1.000000 0.000000
vn 0.000000 -1.000000 0.000000
vn 0.000000 -1.000000 0.000000
vn 0.000000 -1.000000 0.000000
vn 0.000000 -1.000000 0.000000
vn 0.000000 -1.000000 0.000000
vn 0.000000 -1.000000 0.000000
vn 0.000000 -1.000000 0.000000
vn 0.000000 -1.000000 0.000000
vn 0.000000 1.000000 0.000000
vn 0.000000 1.000000 0.000000
vn 0.000000 1.000000 0.000000
vn 0.000000 1.000000 0.000000
vn 0.000000 1.000000 -0.000000
vn 0.000000 1.000000 0.000000
vn 0.000000 1.000000 0.000000
vn 0.000000 1.000000 -0.000000
vn 0.000000 1.000000 0.000000
vn 0.000000 1.000000 0.000000
vn 0.000000 1.000000 0.000000
vn 0.000000 1.000000 0.000000
vn 0.000000 1.000000 0.000000
vn 0.000000 1.000000 0.000000
vn 0.000000 1.000000 0.000000
vn 0.000000 1.000000 -0.000000
vn 0.000000 1.000000 0.000000
vn 0.000000 1.000000 0.000000
vn 0.000000 1.000000 0.000000
s 1
g pCylinder13
usemtl lambert2SG
f 1/19/1 2/77/2 19/38/3
f 19/38/3 2/77/2 20/78/4
f 2/20/2 3/79/5 20/39/4
f 20/39/4 3/79/5 21/80/6
f 3/21/5 4/81/7 21/40/6
f 21/40/6 4/81/7 22/82/8
f 4/22/7 5/83/9 22/41/8
f 22/41/8 5/83/9 23/84/10
f 5/23/9 6/85/11 23/42/10
f 23/42/10 6/85/11 24/86/12
f 6/24/11 7/87/13 24/43/12
f 24/43/12 7/87/13 25/88/14
f 7/25/13 8/89/15 25/44/14
f 25/44/14 8/89/15 26/90/16
f 8/26/15 9/91/17 26/45/16
f 26/45/16 9/91/17 27/92/18
f 9/27/17 10/93/19 27/46/18
f 27/46/18 10/93/19 28/94/20
f 10/28/19 11/95/21 28/47/20
f 28/47/20 11/95/21 29/96/22
f 11/29/21 12/97/23 29/48/22
f 29/48/22 12/97/23 30/98/24
f 12/30/23 13/99/25 30/49/24
f 30/49/24 13/99/25 31/100/26
f 13/31/25 14/101/27 31/50/26
f 31/50/26 14/101/27 32/102/28
f 14/32/27 15/103/29 32/51/28
f 32/51/28 15/103/29 33/104/30
f 15/33/29 16/105/31 33/52/30
f 33/52/30 16/105/31 34/106/32
f 16/34/31 17/107/33 34/53/32
f 34/53/32 17/107/33 35/108/34
f 17/35/33 18/109/35 35/54/34
f 35/54/34 18/109/35 36/110/36
f 18/36/35 1/37/1 36/55/36
f 36/55/36 1/37/1 19/56/3
s 2
f 2/111/37 1/112/38 37/113/39
f 3/114/40 2/2/37 37/115/39
f 4/116/41 3/3/40 37/117/39
f 5/118/42 4/4/41 37/119/39
f 6/120/43 5/5/42 37/121/39
f 7/122/44 6/6/43 37/123/39
f 8/124/45 7/7/44 37/125/39
f 9/126/46 8/8/45 37/127/39
f 10/128/47 9/9/46 37/129/39
f 11/130/48 10/10/47 37/131/39
f 12/132/49 11/11/48 37/133/39
f 13/134/50 12/12/49 37/135/39
f 14/136/51 13/13/50 37/137/39
f 15/138/52 14/14/51 37/139/39
f 16/140/53 15/15/52 37/141/39
f 17/142/54 16/16/53 37/143/39
f 18/144/55 17/17/54 37/145/39
f 1/1/38 18/18/55 37/75/39
s 3
f 19/146/56 20/147/57 38/148/58
f 20/72/57 21/149/59 38/150/58
f 21/71/59 22/151/60 38/152/58
f 22/70/60 23/153/61 38/154/58
f 23/69/61 24/155/62 38/156/58
f 24/68/62 25/157/63 38/158/58
f 25/67/63 26/159/64 38/160/58
f 26/66/64 27/161/65 38/162/58
f 27/65/65 28/163/66 38/164/58
f 28/64/66 29/165/67 38/166/58
f 29/63/67 30/167/68 38/168/58
f 30/62/68 31/169/69 38/170/58
f 31/61/69 32/171/70 38/172/58
f 32/60/70 33/173/71 38/174/58
f 33/59/71 34/175/72 38/176/58
f 34/58/72 35/177/73 38/178/58
f 35/57/73 36/179/74 38/180/58
f 36/74/74 19/73/56 38/76/58
