# This file uses centimeters as units for non-parametric coordinates.

mtllib grijper.mtl
g default
v 0.219284 0.282831 -0.000000
v 0.620181 0.282831 0.701280
v 0.219284 0.432831 -0.000000
v 0.620181 0.432831 0.701280
v 0.369284 0.432831 0.000000
v 0.737275 0.432831 0.616232
v 0.369284 0.282831 0.000000
v 0.737275 0.282831 0.616232
v 0.764073 0.282831 0.784568
v 0.671203 0.282831 0.757840
v 0.764073 0.432831 0.784568
v 0.671203 0.432831 0.757840
v 1.162535 0.432831 0.574986
v 1.162535 0.282831 0.574986
v 1.152045 0.432831 0.722804
v 1.152045 0.282831 0.722804
v 1.302614 0.432831 0.628630
v 1.302614 0.282831 0.628630
v 1.255830 0.432831 0.684438
v 1.255830 0.282831 0.684438
v 1.188914 0.432831 0.506102
v 1.188914 0.282831 0.506102
v 1.328994 0.432831 0.559746
v 1.328994 0.282831 0.559746
v 1.015973 0.552771 0.410740
v 1.015973 0.162892 0.410740
v 1.521395 0.552771 0.604293
v 1.521395 0.162892 0.604293
v 1.027314 0.552771 0.381125
v 1.027314 0.162892 0.381125
v 1.532736 0.552771 0.574677
v 1.532736 0.162892 0.574677
vt 0.720364 0.497451
vt 0.720364 0.497451
vt 0.720364 0.681219
vt 0.536596 0.497451
vt 0.536596 0.497451
vt 0.720364 0.497451
vt 0.536596 0.497451
vt 0.720364 0.497451
vt 0.536596 0.681219
vt 0.720364 0.681219
vt 0.720364 0.497451
vt 0.536596 0.497451
vt 0.536596 0.497451
vt 0.536596 0.681219
vt 0.720364 0.681219
vt 0.536596 0.497451
vt 0.536596 0.497451
vt 0.536596 0.681219
vt 0.720364 0.497451
vt 0.536596 0.497451
vt 0.536596 0.497451
vt 0.536596 0.497451
vt 0.536596 0.497451
vt 0.536596 0.497451
vt 0.536596 0.681219
vt 0.536596 0.681219
vt 0.464633 0.497451
vt 0.280865 0.497451
vt 0.280865 0.497451
vt 0.280865 0.497451
vt 0.464633 0.497451
vt 0.280865 0.497451
vt 0.280865 0.497451
vt 0.280865 0.497451
vt 0.464633 0.681219
vt 0.280865 0.681219
vt 0.280865 0.681219
vt 0.280865 0.681219
vt 0.536596 0.497451
vt 0.720364 0.497451
vt 0.720364 0.681219
vt 0.536596 0.681219
vt 0.536596 0.497451
vt 0.720364 0.497451
vt 0.720364 0.681219
vt 0.536596 0.681219
vt 0.720364 0.681219
vt 0.536596 0.681219
vt 0.536596 0.497451
vt 0.720364 0.497451
vt 0.720364 0.681219
vt 0.536596 0.681219
vt 0.536596 0.497451
vt 0.720364 0.497451
vt 0.720364 0.681219
vt 0.536596 0.681219
vt 0.536596 0.497451
vt 0.720364 0.497451
vt 0.720364 0.681219
vt 0.536596 0.681219
vt 0.536596 0.497451
vt 0.720364 0.497451
vt 0.720364 0.681219
vt 0.536596 0.681219
vt 0.536596 0.497451
vt 0.720364 0.497451
vt 0.720364 0.681219
vt 0.536596 0.681219
vt 0.720364 0.497451
vt 0.720364 0.681219
vt 0.536596 0.681219
vt 0.720364 0.497451
vt 0.720364 0.681219
vt 0.536596 0.681219
vt 0.720364 0.681219
vt 0.536596 0.681219
vt 0.280865 0.497451
vt 0.464633 0.497451
vt 0.464633 0.681219
vt 0.280865 0.681219
vt 0.536596 0.497451
vt 0.720364 0.497451
vt 0.720364 0.681219
vt 0.536596 0.681219
vt 0.720364 0.497451
vt 0.720364 0.681219
vt 0.720364 0.497451
vt 0.720364 0.681219
vt 0.536596 0.497451
vt 0.720364 0.497451
vt 0.720364 0.681219
vt 0.536596 0.681219
vt 0.720364 0.497451
vt 0.720364 0.681219
vt 0.536596 0.681219
vt 0.720364 0.497451
vt 0.720364 0.681219
vt 0.536596 0.681219
vt 0.720364 0.681219
vt 0.536596 0.681219
vt 0.280865 0.497451
vt 0.464633 0.497451
vt 0.464633 0.681219
vt 0.280865 0.681219
vt 0.464633 0.497451
vt 0.464633 0.681219
vt 0.280865 0.681219
vt 0.464633 0.497451
vt 0.464633 0.681219
vt 0.280865 0.681219
vt 0.464633 0.681219
vt 0.280865 0.681219
vt 0.280865 0.497451
vt 0.464633 0.497451
vt 0.464633 0.681219
vt 0.280865 0.681219
vt 0.464633 0.497451
vt 0.464633 0.681219
vt 0.464633 0.497451
vt 0.464633 0.681219
vn -0.868155 0.000000 0.496294
vn -0.818293 0.000000 0.574801
vn -0.818293 0.000000 0.574801
vn -0.868155 0.000000 0.496294
vn 0.000000 1.000000 -0.000000
vn -0.000000 1.000000 0.000000
vn -0.000000 1.000000 0.000000
vn 0.000000 1.000000 -0.000000
vn 0.858566 0.000000 -0.512704
vn 0.858566 0.000000 -0.512704
vn 0.858566 0.000000 -0.512704
vn 0.858566 0.000000 -0.512704
vn -0.000000 -1.000000 0.000000
vn 0.000000 -1.000000 -0.000000
vn 0.000000 -1.000000 -0.000000
vn -0.000000 -1.000000 0.000000
vn -0.276571 0.000000 0.960993
vn -0.090998 0.000000 0.995851
vn -0.090998 0.000000 0.995851
vn -0.276571 0.000000 0.960993
vn 0.000000 0.000000 -1.000000
vn 0.000000 0.000000 -1.000000
vn 0.000000 0.000000 -1.000000
vn 0.000000 0.000000 -1.000000
vn 0.000000 -1.000000 -0.000000
vn 0.000000 -1.000000 -0.000000
vn 0.869286 0.000000 0.494310
vn 0.869286 0.000000 0.494310
vn 0.766339 0.000000 0.642437
vn 0.766339 0.000000 0.642437
vn -0.000000 1.000000 0.000000
vn -0.000000 1.000000 0.000000
vn -0.742521 0.000000 0.669822
vn -0.742521 0.000000 0.669822
vn -0.096536 0.000000 -0.995329
vn -0.096536 0.000000 -0.995329
vn -0.096536 0.000000 -0.995329
vn -0.096536 0.000000 -0.995329
vn -0.000000 1.000000 0.000000
vn 0.000000 1.000000 -0.000000
vn 0.250784 0.000000 0.968043
vn 0.250784 0.000000 0.968043
vn -0.000000 -1.000000 0.000000
vn 0.000000 -1.000000 0.000000
vn 0.357625 0.000000 -0.933865
vn 0.357625 0.000000 -0.933865
vn 0.357625 0.000000 -0.933865
vn 0.357625 0.000000 -0.933865
vn 0.000000 1.000000 0.000000
vn 0.000000 1.000000 -0.000000
vn 0.346733 0.000000 0.937964
vn 0.346733 0.000000 0.937964
vn -0.000000 -1.000000 0.000000
vn 0.000000 -1.000000 0.000000
vn -0.933865 0.000000 -0.357625
vn -0.933865 0.000000 -0.357625
vn -0.877104 0.000000 0.480300
vn -0.877104 0.000000 0.480300
vn -0.114454 0.947405 0.298872
vn -0.114454 0.947405 0.298872
vn 0.448397 0.000000 0.893835
vn 0.448397 0.000000 0.893835
vn -0.114454 -0.947405 0.298872
vn -0.114454 -0.947405 0.298872
vn -0.482866 0.000000 0.875694
vn -0.482866 0.000000 0.875694
vn -0.348765 0.221216 0.910728
vn -0.348765 0.221216 0.910728
vn -0.225564 0.000000 0.974228
vn -0.225564 0.000000 0.974228
vn -0.348765 -0.221217 0.910728
vn -0.348765 -0.221217 0.910728
vn -0.933865 0.000000 -0.357625
vn -0.933865 0.000000 -0.357625
vn -0.933865 0.000000 -0.357625
vn -0.933865 0.000000 -0.357625
vn -0.000000 1.000000 0.000000
vn -0.000000 1.000000 0.000000
vn -0.000000 1.000000 0.000000
vn -0.000000 1.000000 0.000000
vn 0.933866 0.000000 0.357623
vn 0.933866 0.000000 0.357623
vn 0.933866 0.000000 0.357623
vn 0.933866 0.000000 0.357623
vn -0.000000 -1.000000 0.000000
vn -0.000000 -1.000000 0.000000
vn -0.000000 -1.000000 0.000000
vn -0.000000 -1.000000 0.000000
s 1
g grijper
usemtl lambert3SG
f 1/39/1 2/40/2 4/41/3 3/42/4
s 2
f 3/43/5 4/44/6 6/45/7 5/46/8
s off
f 5/5/9 6/6/10 8/47/11 7/48/12
s 3
f 7/7/13 8/8/14 2/10/15 1/9/16
s 4
f 10/49/17 9/50/18 11/51/19 12/52/20
s off
f 7/13/21 1/1/22 3/3/23 5/14/24
s 3
f 2/53/15 8/54/14 9/55/25 10/56/26
s 5
f 18/57/27 17/58/28 19/59/29 20/60/30
s 2
f 6/61/7 4/62/6 12/63/31 11/64/32
s 1
f 4/4/3 2/2/2 10/15/33 12/18/34
s off
f 8/65/35 6/66/36 13/67/37 14/68/38
s 2
f 6/12/7 11/69/32 15/70/39 13/71/40
s 4
f 11/17/19 9/72/18 16/73/41 15/74/42
s 3
f 9/16/25 8/11/14 14/75/43 16/76/44
s off
f 30/77/45 29/78/46 31/79/47 32/80/48
s 2
f 13/81/40 15/82/39 19/83/49 17/84/50
s 4
f 15/21/42 16/85/41 20/86/51 19/25/52
s 3
f 16/22/44 14/87/43 18/88/53 20/26/54
s 6
f 14/89/55 13/90/56 21/91/57 22/92/58
s 2
f 13/20/40 17/93/50 23/94/59 21/95/60
s 5
f 17/24/28 18/96/27 24/97/61 23/98/62
s 3
f 18/23/53 14/19/43 22/99/63 24/100/64
s 6
f 22/101/58 21/102/57 25/103/65 26/104/66
s 2
f 21/28/60 23/105/59 27/106/67 25/107/68
s 5
f 23/29/62 24/108/61 28/109/69 27/110/70
s 3
f 24/30/64 22/27/63 26/111/71 28/112/72
s off
f 26/113/73 25/114/74 29/115/75 30/116/76
f 25/32/77 27/117/78 31/118/79 29/36/80
f 27/33/81 28/119/82 32/120/83 31/37/84
f 28/34/85 26/31/86 30/35/87 32/38/88
