# This file uses centimeters as units for non-parametric coordinates.

mtllib pneumaticPin.mtl
g default
v 0.224595 0.181601 -0.162983
v 0.224595 0.344585 -0.230493
v 0.224595 0.507568 -0.162983
v 0.224595 0.575078 0.000000
v 0.224595 0.507568 0.162983
v 0.224595 0.344585 0.230493
v 0.224595 0.181601 0.162984
v 0.224595 0.114091 0.000000
v 1.294950 0.220372 -0.124213
v 1.294950 0.344585 -0.175664
v 1.294950 0.468798 -0.124213
v 1.294950 0.520248 0.000000
v 1.294950 0.468798 0.124213
v 1.294950 0.344585 0.175664
v 1.294950 0.220372 0.124213
v 1.294950 0.168921 0.000000
v 0.224595 0.344585 0.000000
v 1.546710 0.270116 -0.069086
v 1.546710 0.344585 -0.097702
v 1.546710 0.419054 -0.069086
v 1.546710 0.449900 0.000000
v 1.546710 0.419054 0.069086
v 1.546710 0.344585 0.097702
v 1.546710 0.270116 0.069086
v 1.546710 0.239269 0.000000
v 2.511080 0.344585 0.000000
vt 0.548034 0.512480
vt 0.713251 0.512480
vt 0.713251 0.512480
vt 0.713251 0.512480
vt 0.713251 0.512480
vt 0.713251 0.512480
vt 0.713251 0.512480
vt 0.713251 0.512480
vt 0.548034 0.512480
vt 0.548034 0.512480
vt 0.548034 0.512480
vt 0.548034 0.512480
vt 0.548034 0.512480
vt 0.548034 0.512480
vt 0.548034 0.512480
vt 0.548034 0.512480
vt 0.713251 0.512480
vt 0.548034 0.677698
vt 0.548034 0.677698
vt 0.548034 0.677698
vt 0.548034 0.677698
vt 0.548034 0.677698
vt 0.548034 0.677698
vt 0.548034 0.677698
vt 0.548034 0.677698
vt 0.713251 0.677698
vt 0.548034 0.512480
vt 0.548034 0.512480
vt 0.548034 0.512480
vt 0.548034 0.512480
vt 0.548034 0.512480
vt 0.548034 0.512480
vt 0.713251 0.512480
vt 0.548034 0.512480
vt 0.713251 0.677698
vt 0.713251 0.677698
vt 0.713251 0.512480
vt 0.548034 0.512480
vt 0.548034 0.512480
vt 0.548034 0.512480
vt 0.548034 0.512480
vt 0.548034 0.512480
vt 0.548034 0.512480
vt 0.548034 0.512480
vt 0.713251 0.512480
vt 0.713251 0.677698
vt 0.713251 0.512480
vt 0.713251 0.677698
vt 0.713251 0.512480
vt 0.713251 0.677698
vt 0.713251 0.512480
vt 0.713251 0.677698
vt 0.713251 0.512480
vt 0.713251 0.677698
vt 0.713251 0.512480
vt 0.713251 0.677698
vt 0.713251 0.512480
vt 0.713251 0.677698
vt 0.548034 0.512480
vt 0.713251 0.512480
vt 0.713251 0.677698
vt 0.548034 0.512480
vt 0.713251 0.677698
vt 0.548034 0.512480
vt 0.713251 0.677698
vt 0.548034 0.512480
vt 0.713251 0.677698
vt 0.548034 0.512480
vt 0.713251 0.677698
vt 0.548034 0.512480
vt 0.713251 0.677698
vt 0.548034 0.512480
vt 0.713251 0.677698
vt 0.548034 0.512480
vt 0.713251 0.512480
vt 0.713251 0.677698
vt 0.548034 0.677698
vt 0.713251 0.512480
vt 0.713251 0.677698
vt 0.548034 0.677698
vt 0.713251 0.512480
vt 0.713251 0.677698
vt 0.548034 0.677698
vt 0.713251 0.512480
vt 0.713251 0.677698
vt 0.548034 0.677698
vt 0.713251 0.512480
vt 0.713251 0.677698
vt 0.548034 0.677698
vt 0.713251 0.512480
vt 0.713251 0.677698
vt 0.548034 0.677698
vt 0.713251 0.512480
vt 0.713251 0.677698
vt 0.548034 0.677698
vt 0.713251 0.677698
vt 0.548034 0.677698
vt 0.548034 0.512480
vt 0.713251 0.512480
vt 0.713251 0.677698
vt 0.713251 0.512480
vt 0.713251 0.677698
vt 0.713251 0.512480
vt 0.713251 0.677698
vt 0.713251 0.512480
vt 0.713251 0.677698
vt 0.713251 0.512480
vt 0.713251 0.677698
vt 0.713251 0.512480
vt 0.713251 0.677698
vt 0.713251 0.512480
vt 0.713251 0.677698
vn 0.047274 -0.382255 -0.922847
vn 0.047274 -0.382255 -0.922847
vn 0.047274 -0.382255 -0.922847
vn 0.047274 -0.382255 -0.922847
vn 0.047274 0.382255 -0.922847
vn 0.047274 0.382255 -0.922847
vn 0.047274 0.382255 -0.922847
vn 0.047274 0.382255 -0.922847
vn 0.047274 0.922847 -0.382255
vn 0.047274 0.922847 -0.382255
vn 0.047274 0.922847 -0.382255
vn 0.047274 0.922847 -0.382255
vn 0.047274 0.922847 0.382255
vn 0.047274 0.922847 0.382255
vn 0.047274 0.922847 0.382255
vn 0.047274 0.922847 0.382255
vn 0.047274 0.382255 0.922847
vn 0.047274 0.382255 0.922847
vn 0.047274 0.382255 0.922847
vn 0.047274 0.382255 0.922847
vn 0.047274 -0.382255 0.922847
vn 0.047274 -0.382255 0.922847
vn 0.047274 -0.382255 0.922847
vn 0.047274 -0.382255 0.922847
vn 0.047274 -0.922847 0.382255
vn 0.047274 -0.922847 0.382255
vn 0.047274 -0.922847 0.382255
vn 0.047274 -0.922847 0.382255
vn 0.047274 -0.922847 -0.382256
vn 0.047274 -0.922847 -0.382256
vn 0.047274 -0.922847 -0.382256
vn 0.047274 -0.922847 -0.382256
vn -1.000000 0.000000 0.000000
vn -1.000000 0.000000 0.000000
vn -1.000000 0.000000 0.000000
vn -1.000000 0.000000 0.000000
vn -1.000000 0.000000 0.000000
vn -1.000000 0.000000 0.000000
vn -1.000000 0.000000 0.000000
vn -1.000000 0.000000 0.000000
vn -1.000000 0.000000 0.000000
vn 0.282513 -0.674612 -0.681971
vn 0.290970 -0.000000 -0.956732
vn 0.290970 -0.000000 -0.956732
vn 0.282513 -0.674612 -0.681971
vn 0.282513 0.674612 -0.681971
vn 0.282513 0.674612 -0.681971
vn 0.274190 0.961676 -0.000000
vn 0.274190 0.961676 -0.000000
vn 0.282513 0.674612 0.681971
vn 0.282513 0.674612 0.681971
vn 0.290970 -0.000000 0.956732
vn 0.290970 -0.000000 0.956732
vn 0.282513 -0.674612 0.681971
vn 0.282513 -0.674612 0.681971
vn 0.274190 -0.961675 -0.000000
vn 0.274190 -0.961675 -0.000000
vn 0.094150 -0.357104 -0.929307
vn 0.094150 -0.357104 -0.929307
vn 0.094150 -0.357104 -0.929307
vn 0.094150 0.357104 -0.929308
vn 0.094150 0.357104 -0.929308
vn 0.094150 0.357104 -0.929308
vn 0.099226 0.908610 -0.405687
vn 0.099226 0.908610 -0.405687
vn 0.099226 0.908610 -0.405687
vn 0.099226 0.908610 0.405687
vn 0.099226 0.908610 0.405687
vn 0.099226 0.908610 0.405687
vn 0.094150 0.357104 0.929307
vn 0.094150 0.357104 0.929307
vn 0.094150 0.357104 0.929307
vn 0.094150 -0.357104 0.929307
vn 0.094150 -0.357104 0.929307
vn 0.094150 -0.357104 0.929307
vn 0.099226 -0.908610 0.405687
vn 0.099226 -0.908610 0.405687
vn 0.099226 -0.908610 0.405687
vn 0.099226 -0.908610 -0.405686
vn 0.099226 -0.908610 -0.405686
vn 0.099226 -0.908610 -0.405686
s off
g pneumaticPin
usemtl lambert3SG
f 1/9/1 2/45/2 10/46/3 9/18/4
f 2/10/5 3/47/6 11/48/7 10/19/8
f 3/11/9 4/49/10 12/50/11 11/20/12
f 4/12/13 5/51/14 13/52/15 12/21/16
f 5/13/17 6/53/18 14/54/19 13/22/20
f 6/14/21 7/55/22 15/56/23 14/23/24
f 7/15/25 8/57/26 16/58/27 15/24/28
f 8/16/29 1/17/30 9/26/31 16/25/32
s 1
f 2/59/33 1/60/34 17/61/35
f 3/62/36 2/2/33 17/63/35
f 4/64/37 3/3/36 17/65/35
f 5/66/38 4/4/37 17/67/35
f 6/68/39 5/5/38 17/69/35
f 7/70/40 6/6/39 17/71/35
f 8/72/41 7/7/40 17/73/35
f 1/1/34 8/8/41 17/35/35
s 2
f 9/74/42 10/75/43 19/76/44 18/77/45
f 10/32/43 11/78/46 20/79/47 19/80/44
f 11/31/46 12/81/48 21/82/49 20/83/47
f 12/30/48 13/84/50 22/85/51 21/86/49
f 13/29/50 14/87/52 23/88/53 22/89/51
f 14/28/52 15/90/54 24/91/55 23/92/53
f 15/27/54 16/93/56 25/94/57 24/95/55
f 16/34/56 9/33/42 18/96/45 25/97/57
s off
f 18/98/58 19/99/59 26/100/60
f 19/38/61 20/101/62 26/102/63
f 20/39/64 21/103/65 26/104/66
f 21/40/67 22/105/68 26/106/69
f 22/41/70 23/107/71 26/108/72
f 23/42/73 24/109/74 26/110/75
f 24/43/76 25/111/77 26/112/78
f 25/44/79 18/37/80 26/36/81
