# This file uses centimeters as units for non-parametric coordinates.

mtllib singelPin.mtl
g default
v 0.063688 -0.064941 -0.064279
v 0.033067 -0.057938 -0.086603
v 0.001680 -0.043172 -0.098481
v -0.022878 -0.018614 -0.098481
v -0.037644 0.012773 -0.086603
v -0.044647 0.043394 -0.064279
v -0.045554 0.067045 -0.034202
v -0.043258 0.077870 -0.000000
v -0.045554 0.067045 0.034202
v -0.044647 0.043394 0.064279
v -0.037644 0.012773 0.086603
v -0.022877 -0.018614 0.098481
v 0.001680 -0.043171 0.098481
v 0.033067 -0.057938 0.086603
v 0.063688 -0.064941 0.064279
v 1.495834 1.367205 -0.064279
v 1.477022 1.386017 -0.086603
v 1.453945 1.409094 -0.098481
v 1.429388 1.433651 -0.098481
v 1.406311 1.456728 -0.086603
v 1.387499 1.475540 -0.064279
v 1.375220 1.487819 -0.034202
v 1.370956 1.492083 -0.000000
v 1.375220 1.487819 0.034202
v 1.387499 1.475540 0.064279
v 1.406311 1.456728 0.086603
v 1.429388 1.433651 0.098481
v 1.453945 1.409094 0.098481
v 1.477022 1.386017 0.086603
v 1.495834 1.367205 0.064279
v -0.010599 -0.030893 0.000000
v 1.441666 1.421372 0.000000
v 1.389524 1.260895 -0.064279
v 1.389082 1.260453 0.064279
v 2.095508 0.661001 0.000000
vt 0.485200 0.484255
vt 0.485200 0.484255
vt 0.485200 0.484255
vt 0.485200 0.484255
vt 0.485200 0.484255
vt 0.485200 0.484255
vt 0.485200 0.484255
vt 0.485200 0.484255
vt 0.485200 0.484255
vt 0.485200 0.484255
vt 0.485200 0.484255
vt 0.485200 0.484255
vt 0.485200 0.484255
vt 0.485200 0.484255
vt 0.485200 0.705124
vt 0.485200 0.484255
vt 0.485057 0.705267
vt 0.485343 0.484398
vt 0.485343 0.484398
vt 0.485343 0.484398
vt 0.485343 0.484398
vt 0.485343 0.484398
vt 0.485343 0.484398
vt 0.485343 0.484398
vt 0.485343 0.484398
vt 0.485343 0.484398
vt 0.485343 0.484398
vt 0.485343 0.484398
vt 0.485343 0.484398
vt 0.485057 0.705267
vt 0.485200 0.705124
vt 0.264188 0.704981
vt 0.264474 0.484112
vt 0.264474 0.484112
vt 0.264474 0.484112
vt 0.264474 0.484112
vt 0.264474 0.484112
vt 0.264474 0.484112
vt 0.264474 0.484112
vt 0.264474 0.484112
vt 0.264474 0.484112
vt 0.264474 0.484112
vt 0.264474 0.484112
vt 0.264331 0.484255
vt 0.485200 0.705124
vt 0.485200 0.484255
vt 0.264331 0.484255
vt 0.264331 0.484255
vt 0.264331 0.484255
vt 0.264331 0.484255
vt 0.264331 0.484255
vt 0.264331 0.484255
vt 0.264331 0.484255
vt 0.264331 0.484255
vt 0.264331 0.484255
vt 0.264331 0.484255
vt 0.264331 0.484255
vt 0.264331 0.484255
vt 0.264331 0.484255
vt 0.485200 0.705124
vt 0.264331 0.484255
vt 0.264331 0.484255
vt 0.264188 0.704981
vt 0.264474 0.484112
vt 0.529233 0.203445
vt 0.529233 0.203445
vt 0.529284 0.046034
vt 0.687915 0.120492
vt 0.529233 0.203445
vt 0.529284 0.046034
vt 0.687915 0.120492
vt 0.529233 0.203445
vt 0.529284 0.046034
vt 0.687915 0.120492
vt 0.529284 0.046034
vt 0.687915 0.120492
vt 0.264331 0.484255
vt 0.485200 0.484255
vt 0.485343 0.484398
vt 0.485057 0.705267
vt 0.264188 0.704981
vt 0.264474 0.484112
vt 0.485057 0.705267
vt 0.264188 0.704981
vt 0.485057 0.705267
vt 0.264188 0.704981
vt 0.485057 0.705267
vt 0.264188 0.704981
vt 0.485057 0.705267
vt 0.264188 0.704981
vt 0.485057 0.705267
vt 0.264188 0.704981
vt 0.485057 0.705267
vt 0.264188 0.704981
vt 0.485057 0.705267
vt 0.264188 0.704981
vt 0.485057 0.705267
vt 0.264188 0.704981
vt 0.485057 0.705267
vt 0.264188 0.704981
vt 0.485057 0.705267
vt 0.264188 0.704981
vt 0.485057 0.705267
vt 0.264188 0.704981
vt 0.264188 0.704981
vt 0.264474 0.484112
vt 0.264331 0.484255
vt 0.485200 0.705124
vt 0.264331 0.484255
vt 0.485200 0.705124
vt 0.264331 0.484255
vt 0.485200 0.705124
vt 0.264331 0.484255
vt 0.485200 0.705124
vt 0.264331 0.484255
vt 0.485200 0.705124
vt 0.264331 0.484255
vt 0.485200 0.705124
vt 0.264331 0.484255
vt 0.485200 0.705124
vt 0.264331 0.484255
vt 0.485200 0.705124
vt 0.264331 0.484255
vt 0.485200 0.705124
vt 0.264331 0.484255
vt 0.485200 0.705124
vt 0.264331 0.484255
vt 0.485200 0.705124
vt 0.264331 0.484255
vt 0.485200 0.705124
vt 0.264331 0.484255
vt 0.485200 0.705124
vt 0.264331 0.484255
vt 0.485200 0.705124
vt 0.264331 0.484255
vt 0.485200 0.484255
vt 0.485200 0.705124
vt 0.485200 0.484255
vt 0.485200 0.705124
vt 0.485200 0.484255
vt 0.485200 0.705124
vt 0.485200 0.484255
vt 0.485200 0.705124
vt 0.485200 0.484255
vt 0.485200 0.705124
vt 0.485200 0.484255
vt 0.485200 0.705124
vt 0.485200 0.484255
vt 0.485200 0.705124
vt 0.485200 0.484255
vt 0.485200 0.705124
vt 0.485200 0.484255
vt 0.485200 0.705124
vt 0.485200 0.484255
vt 0.485200 0.705124
vt 0.485200 0.484255
vt 0.485200 0.705124
vt 0.485200 0.484255
vt 0.485200 0.705124
vt 0.485200 0.484255
vt 0.485200 0.705124
vt 0.485200 0.705124
vt 0.485200 0.484255
vt 0.485200 0.484255
vt 0.485343 0.484398
vt 0.264474 0.484112
vt 0.485343 0.484398
vt 0.485057 0.705267
vn 0.454522 -0.454522 -0.766041
vn 0.454522 -0.454522 -0.766041
vn 0.454522 -0.454522 -0.766041
vn 0.353555 -0.353555 -0.866024
vn 0.122788 -0.122788 -0.984808
vn 0.122788 -0.122788 -0.984808
vn 0.353555 -0.353555 -0.866024
vn -0.122789 0.122789 -0.984808
vn -0.122789 0.122789 -0.984808
vn -0.353554 0.353554 -0.866025
vn -0.353554 0.353554 -0.866025
vn -0.541673 0.541673 -0.642790
vn -0.541673 0.541673 -0.642790
vn -0.664463 0.664463 -0.342020
vn -0.664463 0.664463 -0.342020
vn -0.707107 0.707107 -0.000000
vn -0.707107 0.707107 -0.000000
vn -0.664463 0.664463 0.342020
vn -0.664463 0.664463 0.342020
vn -0.541673 0.541673 0.642791
vn -0.541673 0.541673 0.642791
vn -0.353554 0.353554 0.866025
vn -0.353554 0.353554 0.866025
vn -0.122789 0.122789 0.984807
vn -0.122789 0.122789 0.984807
vn 0.122787 -0.122787 0.984808
vn 0.122787 -0.122787 0.984808
vn 0.353554 -0.353554 0.866025
vn 0.353554 -0.353554 0.866025
vn 0.640857 -0.640857 0.422616
vn 0.640857 -0.640857 0.422616
vn -0.647265 -0.762250 -0.004843
vn -0.647265 -0.762250 -0.004843
vn -0.647265 -0.762250 -0.004843
vn -0.377143 -0.921012 0.097470
vn -0.365086 -0.928352 0.069821
vn -0.786650 -0.617399 0.000001
vn -0.579021 -0.814782 0.029396
vn -0.814783 -0.579021 0.029397
vn -0.921013 -0.377141 0.097468
vn -0.942546 -0.292763 0.160925
vn -0.945426 -0.278196 0.169640
vn -0.957753 -0.287593 0.000000
vn -0.945425 -0.278196 -0.169640
vn -0.942546 -0.292763 -0.160923
vn -0.921013 -0.377142 -0.097466
vn -0.814783 -0.579021 -0.029397
vn -0.579024 -0.814780 -0.029394
vn -0.377144 -0.921012 -0.097466
vn -0.365086 -0.928352 -0.069820
vn 0.707105 0.707109 0.000000
vn 0.707106 0.707108 0.000000
vn 0.707106 0.707107 -0.000000
vn 0.707106 0.707107 0.000001
vn 0.707107 0.707106 0.000002
vn 0.707108 0.707106 0.000002
vn 0.707106 0.707107 0.000006
vn 0.707106 0.707108 0.000005
vn 0.707107 0.707107 0.000000
vn 0.707106 0.707108 -0.000005
vn 0.707106 0.707107 -0.000005
vn 0.707108 0.707106 -0.000001
vn 0.707107 0.707106 -0.000002
vn 0.707106 0.707107 -0.000002
vn 0.707106 0.707108 -0.000001
vn 0.707105 0.707109 0.000000
vn 0.454522 -0.454522 0.766042
vn 0.454522 -0.454522 0.766042
vn 0.454522 -0.454522 0.766042
vn 0.640857 -0.640857 -0.422616
vn 0.640857 -0.640857 -0.422616
vn 0.049104 -0.049104 -0.997586
vn 0.049104 -0.049104 -0.997586
vn 0.049104 -0.049104 -0.997586
vn 0.049104 -0.049104 0.997586
vn 0.049104 -0.049104 0.997586
vn 0.049104 -0.049104 0.997586
vn 0.762259 0.647272 0.000000
vn 0.762259 0.647272 0.000000
vn 0.762259 0.647272 0.000000
s off
g singelPin
usemtl lambert3SG
f 33/77/1 17/78/2 16/31/3
s 1
f 2/79/4 3/80/5 18/81/6 17/82/7
f 3/18/5 4/83/8 19/84/9 18/33/6
f 4/19/8 5/85/10 20/86/11 19/34/9
f 5/20/10 6/87/12 21/88/13 20/35/11
f 6/21/12 7/89/14 22/90/15 21/36/13
f 7/22/14 8/91/16 23/92/17 22/37/15
f 8/23/16 9/93/18 24/94/19 23/38/17
f 9/24/18 10/95/20 25/96/21 24/39/19
f 10/25/20 11/97/22 26/98/23 25/40/21
f 11/26/22 12/99/24 27/100/25 26/41/23
f 12/27/24 13/101/26 28/102/27 27/42/25
f 13/28/26 14/103/28 29/104/29 28/43/27
f 14/29/28 15/30/30 34/105/31 29/106/29
s off
f 35/67/32 34/68/33 33/69/34
s 2
f 2/107/35 1/1/36 31/108/37
f 3/109/38 2/2/35 31/110/37
f 4/111/39 3/3/38 31/112/37
f 5/113/40 4/4/39 31/114/37
f 6/115/41 5/5/40 31/116/37
f 7/117/42 6/6/41 31/118/37
f 8/119/43 7/7/42 31/120/37
f 9/121/44 8/8/43 31/122/37
f 10/123/45 9/9/44 31/124/37
f 11/125/46 10/10/45 31/126/37
f 12/127/47 11/11/46 31/128/37
f 13/129/48 12/12/47 31/130/37
f 14/131/49 13/13/48 31/132/37
f 15/133/50 14/14/49 31/134/37
s 3
f 16/135/51 17/136/52 32/137/53
f 17/59/52 18/138/54 32/139/53
f 18/58/54 19/140/55 32/141/53
f 19/57/55 20/142/56 32/143/53
f 20/56/56 21/144/57 32/145/53
f 21/55/57 22/146/58 32/147/53
f 22/54/58 23/148/59 32/149/53
f 23/53/59 24/150/60 32/151/53
f 24/52/60 25/152/61 32/153/53
f 25/51/61 26/154/62 32/155/53
f 26/50/62 27/156/63 32/157/53
f 27/49/63 28/158/64 32/159/53
f 28/48/64 29/160/65 32/161/53
f 29/47/65 30/46/66 32/162/53
f 32/62/53 30/163/66 16/60/51
s off
f 29/44/67 34/164/68 30/45/69
s 1
f 1/165/70 2/17/4 17/32/7 33/166/71
s off
f 33/70/72 16/71/73 35/72/74
f 30/73/75 34/74/76 35/66/77
f 16/75/78 30/76/79 35/65/80
s 1
f 15/167/30 1/168/70 33/63/71 34/64/31
s 2
f 31/61/37 1/16/36 15/15/50
