# This file uses centimeters as units for non-parametric coordinates.

mtllib steelCylinder.mtl
g default
v 0.803959 0.000000 -0.292617
v 0.655394 0.000000 -0.549941
v 0.427778 0.000000 -0.740933
v 0.148566 0.000000 -0.842558
v -0.148565 0.000000 -0.842558
v -0.427778 0.000000 -0.740933
v -0.655394 0.000000 -0.549941
v -0.803959 0.000000 -0.292618
v -0.855556 0.000000 -0.000000
v -0.803959 0.000000 0.292617
v -0.655394 0.000000 0.549941
v -0.427778 0.000000 0.740933
v -0.148566 0.000000 0.842558
v 0.148566 0.000000 0.842558
v 0.427778 0.000000 0.740933
v 0.655394 0.000000 0.549941
v 0.803959 0.000000 0.292617
v 0.855556 0.000000 0.000000
v 0.803959 1.000000 -0.292617
v 0.655394 1.000000 -0.549941
v 0.427778 1.000000 -0.740933
v 0.148566 1.000000 -0.842558
v -0.148565 1.000000 -0.842558
v -0.427778 1.000000 -0.740933
v -0.655394 1.000000 -0.549941
v -0.803959 1.000000 -0.292618
v -0.855556 1.000000 -0.000000
v -0.803959 1.000000 0.292617
v -0.655394 1.000000 0.549941
v -0.427778 1.000000 0.740933
v -0.148566 1.000000 0.842558
v 0.148566 1.000000 0.842558
v 0.427778 1.000000 0.740933
v 0.655394 1.000000 0.549941
v 0.803959 1.000000 0.292617
v 0.855556 1.000000 0.000000
v 0.000000 0.000000 0.000000
v 0.000000 1.000000 0.000000
vt 0.489082 0.836245
vt 0.467803 0.799389
vt 0.435201 0.772033
vt 0.395210 0.757477
vt 0.352651 0.757477
vt 0.312659 0.772033
vt 0.280058 0.799389
vt 0.258778 0.836245
vt 0.251388 0.878157
vt 0.258779 0.920069
vt 0.280058 0.956926
vt 0.312659 0.984282
vt 0.352651 0.998838
vt 0.395210 0.998838
vt 0.435201 0.984282
vt 0.467803 0.956926
vt 0.489082 0.920069
vt 0.496473 0.878157
vt 0.497094 0.472987
vt 0.497094 0.472987
vt 0.497094 0.472987
vt 0.497094 0.472987
vt 0.497094 0.472987
vt 0.497094 0.472987
vt 0.497094 0.472987
vt 0.497094 0.472987
vt 0.497094 0.472987
vt 0.497094 0.472987
vt 0.497094 0.472987
vt 0.497094 0.472987
vt 0.497094 0.472987
vt 0.497094 0.472987
vt 0.497094 0.472987
vt 0.497094 0.472987
vt 0.497094 0.472987
vt 0.497094 0.472987
vt 0.497094 0.713957
vt 0.252751 0.472987
vt 0.252751 0.472987
vt 0.252751 0.472987
vt 0.252751 0.472987
vt 0.252751 0.472987
vt 0.252751 0.472987
vt 0.252751 0.472987
vt 0.252751 0.472987
vt 0.252751 0.472987
vt 0.252751 0.472987
vt 0.252751 0.472987
vt 0.252751 0.472987
vt 0.252751 0.472987
vt 0.252751 0.472987
vt 0.252751 0.472987
vt 0.252751 0.472987
vt 0.252751 0.472987
vt 0.252751 0.472987
vt 0.252751 0.713957
vt 0.489082 0.836245
vt 0.467803 0.799389
vt 0.435201 0.772033
vt 0.395210 0.757477
vt 0.352651 0.757477
vt 0.312659 0.772033
vt 0.280058 0.799389
vt 0.258778 0.836245
vt 0.251388 0.878157
vt 0.258779 0.920069
vt 0.280058 0.956926
vt 0.312659 0.984282
vt 0.352651 0.998838
vt 0.395210 0.998838
vt 0.435201 0.984282
vt 0.467803 0.956926
vt 0.489082 0.920069
vt 0.496473 0.878157
vt 0.373930 0.873256
vt 0.373930 0.873256
vt 0.497094 0.713957
vt 0.252751 0.713957
vt 0.497094 0.713957
vt 0.252751 0.713957
vt 0.497094 0.713957
vt 0.252751 0.713957
vt 0.497094 0.713957
vt 0.252751 0.713957
vt 0.497094 0.713957
vt 0.252751 0.713957
vt 0.497094 0.713957
vt 0.252751 0.713957
vt 0.497094 0.713957
vt 0.252751 0.713957
vt 0.497094 0.713957
vt 0.252751 0.713957
vt 0.497094 0.713957
vt 0.252751 0.713957
vt 0.497094 0.713957
vt 0.252751 0.713957
vt 0.497094 0.713957
vt 0.252751 0.713957
vt 0.497094 0.713957
vt 0.252751 0.713957
vt 0.497094 0.713957
vt 0.252751 0.713957
vt 0.497094 0.713957
vt 0.252751 0.713957
vt 0.497094 0.713957
vt 0.252751 0.713957
vt 0.497094 0.713957
vt 0.252751 0.713957
vt 0.497094 0.713957
vt 0.252751 0.713957
vn 0.939693 0.000000 -0.342020
vn 0.939693 0.000000 -0.342020
vn 0.766045 0.000000 -0.642787
vn 0.766045 0.000000 -0.642787
vn 0.500000 0.000000 -0.866025
vn 0.500000 0.000000 -0.866025
vn 0.173649 0.000000 -0.984808
vn 0.173649 0.000000 -0.984808
vn -0.173648 0.000000 -0.984808
vn -0.173648 0.000000 -0.984808
vn -0.500000 0.000000 -0.866025
vn -0.500000 0.000000 -0.866025
vn -0.766044 0.000000 -0.642788
vn -0.766044 0.000000 -0.642788
vn -0.939693 0.000000 -0.342020
vn -0.939693 0.000000 -0.342020
vn -1.000000 0.000000 -0.000000
vn -1.000000 0.000000 -0.000000
vn -0.939693 0.000000 0.342020
vn -0.939693 0.000000 0.342020
vn -0.766045 0.000000 0.642787
vn -0.766045 0.000000 0.642787
vn -0.500000 0.000000 0.866025
vn -0.500000 0.000000 0.866025
vn -0.173648 0.000000 0.984808
vn -0.173648 0.000000 0.984808
vn 0.173648 0.000000 0.984808
vn 0.173648 0.000000 0.984808
vn 0.500000 0.000000 0.866025
vn 0.500000 0.000000 0.866025
vn 0.766044 0.000000 0.642788
vn 0.766044 0.000000 0.642788
vn 0.939693 0.000000 0.342020
vn 0.939693 0.000000 0.342020
vn 1.000000 0.000000 0.000000
vn 1.000000 0.000000 0.000000
vn 0.000000 -1.000000 0.000000
vn 0.000000 -1.000000 0.000000
vn 0.000000 -1.000000 0.000000
vn 0.000000 -1.000000 0.000000
vn 0.000000 -1.000000 0.000000
vn 0.000000 -1.000000 0.000000
vn 0.000000 -1.000000 0.000000
vn 0.000000 -1.000000 0.000000
vn 0.000000 -1.000000 0.000000
vn 0.000000 -1.000000 0.000000
vn 0.000000 -1.000000 0.000000
vn 0.000000 -1.000000 0.000000
vn 0.000000 -1.000000 0.000000
vn 0.000000 -1.000000 0.000000
vn 0.000000 -1.000000 0.000000
vn 0.000000 -1.000000 0.000000
vn 0.000000 -1.000000 0.000000
vn 0.000000 -1.000000 0.000000
vn 0.000000 -1.000000 0.000000
vn 0.000000 1.000000 0.000000
vn 0.000000 1.000000 0.000000
vn 0.000000 1.000000 -0.000000
vn 0.000000 1.000000 0.000000
vn 0.000000 1.000000 -0.000000
vn 0.000000 1.000000 -0.000000
vn 0.000000 1.000000 0.000000
vn 0.000000 1.000000 0.000000
vn 0.000000 1.000000 0.000000
vn 0.000000 1.000000 0.000000
vn 0.000000 1.000000 0.000000
vn 0.000000 1.000000 0.000000
vn 0.000000 1.000000 0.000000
vn 0.000000 1.000000 0.000000
vn 0.000000 1.000000 0.000000
vn 0.000000 1.000000 0.000000
vn 0.000000 1.000000 0.000000
vn 0.000000 1.000000 0.000000
vn 0.000000 1.000000 0.000000
s 1
g steelCylinder
usemtl lambert3SG
f 19/38/1 1/19/2 2/77/3 20/78/4
f 20/39/4 2/20/3 3/79/5 21/80/6
f 21/40/6 3/21/5 4/81/7 22/82/8
f 22/41/8 4/22/7 5/83/9 23/84/10
f 23/42/10 5/23/9 6/85/11 24/86/12
f 24/43/12 6/24/11 7/87/13 25/88/14
f 25/44/14 7/25/13 8/89/15 26/90/16
f 26/45/16 8/26/15 9/91/17 27/92/18
f 27/46/18 9/27/17 10/93/19 28/94/20
f 28/47/20 10/28/19 11/95/21 29/96/22
f 29/48/22 11/29/21 12/97/23 30/98/24
f 30/49/24 12/30/23 13/99/25 31/100/26
f 31/50/26 13/31/25 14/101/27 32/102/28
f 32/51/28 14/32/27 15/103/29 33/104/30
f 33/52/30 15/33/29 16/105/31 34/106/32
f 34/53/32 16/34/31 17/107/33 35/108/34
f 35/54/34 17/35/33 18/109/35 36/110/36
f 36/55/36 18/36/35 1/37/2 19/56/1
s 2
f 2/2/37 1/1/38 37/75/39
f 3/3/40 2/2/37 37/75/39
f 4/4/41 3/3/40 37/75/39
f 5/5/42 4/4/41 37/75/39
f 6/6/43 5/5/42 37/75/39
f 7/7/44 6/6/43 37/75/39
f 8/8/45 7/7/44 37/75/39
f 9/9/46 8/8/45 37/75/39
f 10/10/47 9/9/46 37/75/39
f 11/11/48 10/10/47 37/75/39
f 12/12/49 11/11/48 37/75/39
f 13/13/50 12/12/49 37/75/39
f 14/14/51 13/13/50 37/75/39
f 15/15/52 14/14/51 37/75/39
f 16/16/53 15/15/52 37/75/39
f 17/17/54 16/16/53 37/75/39
f 18/18/55 17/17/54 37/75/39
f 1/1/38 18/18/55 37/75/39
s 3
f 19/73/56 20/72/57 38/76/58
f 20/72/57 21/71/59 38/76/58
f 21/71/59 22/70/60 38/76/58
f 22/70/60 23/69/61 38/76/58
f 23/69/61 24/68/62 38/76/58
f 24/68/62 25/67/63 38/76/58
f 25/67/63 26/66/64 38/76/58
f 26/66/64 27/65/65 38/76/58
f 27/65/65 28/64/66 38/76/58
f 28/64/66 29/63/67 38/76/58
f 29/63/67 30/62/68 38/76/58
f 30/62/68 31/61/69 38/76/58
f 31/61/69 32/60/70 38/76/58
f 32/60/70 33/59/71 38/76/58
f 33/59/71 34/58/72 38/76/58
f 34/58/72 35/57/73 38/76/58
f 35/57/73 36/74/74 38/76/58
f 36/74/74 19/73/56 38/76/58
