# This file uses centimeters as units for non-parametric coordinates.

mtllib triangle.mtl
g default
v -0.500000 0.000000 -0.866026
v -0.500000 0.000000 0.866025
v 1.000000 0.000000 0.000000
v -0.500000 0.148771 -0.866026
v -0.500000 0.148771 0.866025
v 1.000000 0.148771 0.000000
vt 0.592114 0.610588
vt 0.513290 0.610588
vt 0.592114 0.689412
vt 0.513290 0.610588
vt 0.513290 0.610588
vt 0.513290 0.610588
vt 0.592114 0.610588
vt 0.513290 0.689412
vt 0.513290 0.689412
vt 0.513290 0.689412
vt 0.592114 0.689412
vt 0.592114 0.689412
vt 0.592114 0.610588
vt 0.513290 0.610588
vt 0.592114 0.610588
vt 0.592114 0.689412
vt 0.592114 0.610588
vt 0.592114 0.689412
vn -1.000000 0.000000 -0.000000
vn -1.000000 0.000000 -0.000000
vn -1.000000 0.000000 -0.000000
vn -1.000000 0.000000 -0.000000
vn 0.500000 0.000000 0.866026
vn 0.500000 0.000000 0.866026
vn 0.500000 0.000000 0.866026
vn 0.500000 0.000000 0.866026
vn 0.500000 0.000000 -0.866025
vn 0.500000 0.000000 -0.866025
vn 0.500000 0.000000 -0.866025
vn 0.500000 0.000000 -0.866025
vn 0.000000 -1.000000 0.000000
vn 0.000000 -1.000000 0.000000
vn 0.000000 -1.000000 0.000000
vn 0.000000 1.000000 -0.000000
vn 0.000000 1.000000 -0.000000
vn 0.000000 1.000000 -0.000000
s 1
g pCylinder5
usemtl lambert2SG
f 1/4/1 2/15/2 4/8/3
f 4/8/3 2/15/2 5/16/4
s 2
f 2/5/5 3/17/6 5/9/7
f 5/9/7 3/17/6 6/18/8
s 3
f 3/6/9 1/7/10 6/10/11
f 6/10/11 1/7/10 4/11/12
s off
f 2/2/13 1/1/14 3/3/15
f 6/14/16 4/13/17 5/12/18
