# This file uses centimeters as units for non-parametric coordinates.

mtllib vlammenwerper.mtl
g default
v -0.200000 0.801006 0.200000
v 0.200000 0.801006 0.200000
v -0.200000 1.001006 0.200000
v 0.200000 1.001006 0.200000
v -0.200000 1.001006 -0.200000
v 0.200000 1.001006 -0.200000
v -0.200000 0.801006 -0.200000
v 0.200000 0.801006 -0.200000
v -0.200000 1.060200 0.557942
v 0.200000 1.060200 0.557942
v 0.200000 1.260200 0.557942
v -0.200000 1.260200 0.557942
v -0.200000 1.259687 -0.557942
v 0.200000 1.259687 -0.557942
v 0.200000 1.059687 -0.557942
v -0.200000 1.059687 -0.557942
v 0.557942 1.059687 -0.200000
v 0.557942 1.059687 0.200000
v 0.557942 1.259687 -0.200000
v 0.557942 1.259687 0.200000
v -0.557942 1.060200 -0.200000
v -0.557942 1.060200 0.200000
v -0.557942 1.260200 0.200000
v -0.557942 1.260200 -0.200000
v -0.123882 1.052304 0.952054
v 0.123882 1.052304 0.952054
v 0.132114 1.213763 1.015313
v -0.132114 1.213763 1.015313
v -0.132114 1.213251 -1.015313
v 0.132114 1.213251 -1.015313
v 0.123882 1.051823 -0.952054
v -0.123882 1.051823 -0.952054
v 0.952054 1.051823 -0.123882
v 0.952054 1.051823 0.123882
v 1.015313 1.213251 -0.132114
v 1.015313 1.213251 0.132114
v -0.952054 1.052304 -0.123882
v -0.952054 1.052304 0.123882
v -1.015313 1.213763 0.132114
v -1.015313 1.213763 -0.132114
v -0.136242 0.835446 1.172266
v 0.136242 0.835446 1.172266
v 0.124777 0.981608 1.174796
v -0.124777 0.981608 1.174796
v -0.124777 0.981608 -1.174796
v 0.124777 0.981608 -1.174796
v 0.136242 0.835445 -1.172266
v -0.136242 0.835445 -1.172266
v 1.172266 0.835446 -0.136242
v 1.172266 0.835446 0.136242
v 1.174796 0.981608 -0.124777
v 1.174796 0.981608 0.124777
v -1.172266 0.835446 -0.136242
v -1.172266 0.835446 0.136242
v -1.174796 0.981608 0.124777
v -1.174796 0.981608 -0.124777
v 0.087119 0.864383 1.273489
v 0.079787 0.949612 1.274963
v -0.079787 0.949612 1.274963
v -0.087119 0.864383 1.273489
v 0.079787 0.949612 -1.274963
v 0.087119 0.864383 -1.273489
v -0.087119 0.864383 -1.273489
v -0.079787 0.949612 -1.274963
v 1.273419 0.860383 -0.079444
v 1.273419 0.860383 0.079444
v 1.275036 0.953844 -0.072759
v 1.275036 0.953844 0.072759
v -1.273419 0.860383 0.079444
v -1.275036 0.953845 0.072759
v -1.275036 0.953845 -0.072759
v -1.273419 0.860383 -0.079444
v 0.045401 0.861554 1.498759
v 0.041580 0.942382 1.500158
v -0.041580 0.942382 1.500158
v -0.045401 0.861554 1.498759
v 0.041580 0.942382 -1.500158
v 0.045401 0.861554 -1.498759
v -0.045401 0.861554 -1.498759
v -0.041580 0.942382 -1.500158
v 1.499029 0.877181 -0.075342
v 1.499029 0.877181 0.075342
v 1.499872 0.925888 -0.069002
v 1.499872 0.925888 0.069002
v -1.499029 0.877182 0.075342
v -1.499872 0.925889 0.069002
v -1.499872 0.925889 -0.069002
v -1.499029 0.877182 -0.075342
vt 0.755509 0.685592
vt 0.994929 0.685592
vt 0.755509 0.685592
vt 0.755509 0.685592
vt 0.994929 0.685592
vt 0.755509 0.685592
vt 0.755509 0.685592
vt 0.755509 0.685592
vt 0.755509 0.925012
vt 0.994929 0.925012
vt 0.755509 0.685592
vt 0.755509 0.685592
vt 0.994929 0.685592
vt 0.755509 0.685592
vt 0.994929 0.685592
vt 0.755509 0.685592
vt 0.755509 0.685592
vt 0.755509 0.685592
vt 0.994929 0.685592
vt 0.755509 0.685592
vt 0.755509 0.685592
vt 0.755509 0.685592
vt 0.994929 0.685592
vt 0.755509 0.685592
vt 0.755509 0.685592
vt 0.755509 0.685592
vt 0.994929 0.685592
vt 0.755509 0.685592
vt 0.755509 0.685592
vt 0.755509 0.685592
vt 0.994929 0.685592
vt 0.755509 0.685592
vt 0.755509 0.685592
vt 0.755509 0.685592
vt 0.994929 0.685592
vt 0.755509 0.685592
vt 0.755509 0.685592
vt 0.755509 0.685592
vt 0.994929 0.685592
vt 0.755509 0.685592
vt 0.755509 0.685592
vt 0.755509 0.685592
vt 0.994929 0.685592
vt 0.755509 0.685592
vt 0.755509 0.685592
vt 0.755509 0.685592
vt 0.755509 0.685592
vt 0.994929 0.685592
vt 0.755509 0.685592
vt 0.755509 0.685592
vt 0.755509 0.685592
vt 0.994929 0.685592
vt 0.755509 0.685592
vt 0.755509 0.685592
vt 0.994929 0.685592
vt 0.755509 0.685592
vt 0.755509 0.685592
vt 0.755509 0.685592
vt 0.755509 0.685592
vt 0.994929 0.685592
vt 0.755509 0.685592
vt 0.755509 0.685592
vt 0.994929 0.685592
vt 0.755509 0.685592
vt 0.755509 0.685592
vt 0.755509 0.685592
vt 0.994929 0.685592
vt 0.755509 0.685592
vt 0.755509 0.685592
vt 0.755509 0.685592
vt 0.994929 0.685592
vt 0.755509 0.685592
vt 0.755509 0.685592
vt 0.755509 0.685592
vt 0.994929 0.685592
vt 0.755509 0.685592
vt 0.755509 0.685592
vt 0.755509 0.685592
vt 0.994929 0.925012
vt 0.755509 0.925012
vt 0.755509 0.925012
vt 0.755509 0.925012
vt 0.994929 0.925012
vt 0.755509 0.925012
vt 0.755509 0.925012
vt 0.755509 0.925012
vt 0.994929 0.925012
vt 0.755509 0.925012
vt 0.755509 0.925012
vt 0.755509 0.925012
vt 0.994929 0.925012
vt 0.755509 0.925012
vt 0.755509 0.925012
vt 0.755509 0.925012
vt 0.755509 0.685592
vt 0.994929 0.685592
vt 0.994929 0.925012
vt 0.755509 0.925012
vt 0.755509 0.685592
vt 0.994929 0.685592
vt 0.755509 0.685592
vt 0.994929 0.685592
vt 0.994929 0.925012
vt 0.755509 0.925012
vt 0.755509 0.685592
vt 0.994929 0.685592
vt 0.994929 0.925012
vt 0.755509 0.925012
vt 0.755509 0.685592
vt 0.994929 0.685592
vt 0.994929 0.925012
vt 0.755509 0.925012
vt 0.755509 0.685592
vt 0.994929 0.685592
vt 0.994929 0.925012
vt 0.755509 0.925012
vt 0.755509 0.685592
vt 0.994929 0.685592
vt 0.994929 0.925012
vt 0.755509 0.925012
vt 0.994929 0.685592
vt 0.994929 0.925012
vt 0.755509 0.925012
vt 0.994929 0.685592
vt 0.994929 0.925012
vt 0.755509 0.925012
vt 0.994929 0.925012
vt 0.755509 0.925012
vt 0.755509 0.685592
vt 0.994929 0.685592
vt 0.994929 0.925012
vt 0.755509 0.925012
vt 0.994929 0.685592
vt 0.994929 0.925012
vt 0.755509 0.925012
vt 0.994929 0.685592
vt 0.994929 0.925012
vt 0.755509 0.925012
vt 0.994929 0.925012
vt 0.755509 0.925012
vt 0.755509 0.685592
vt 0.994929 0.685592
vt 0.994929 0.925012
vt 0.755509 0.925012
vt 0.994929 0.685592
vt 0.994929 0.925012
vt 0.755509 0.925012
vt 0.994929 0.685592
vt 0.994929 0.925012
vt 0.755509 0.925012
vt 0.994929 0.925012
vt 0.755509 0.925012
vt 0.755509 0.685592
vt 0.994929 0.685592
vt 0.994929 0.925012
vt 0.755509 0.925012
vt 0.994929 0.685592
vt 0.994929 0.925012
vt 0.755509 0.925012
vt 0.994929 0.685592
vt 0.994929 0.925012
vt 0.755509 0.925012
vt 0.994929 0.925012
vt 0.755509 0.925012
vt 0.755509 0.685592
vt 0.994929 0.685592
vt 0.994929 0.925012
vt 0.755509 0.925012
vt 0.994929 0.685592
vt 0.994929 0.925012
vt 0.755509 0.925012
vt 0.994929 0.685592
vt 0.994929 0.925012
vt 0.755509 0.925012
vt 0.994929 0.925012
vt 0.755509 0.925012
vt 0.755509 0.685592
vt 0.994929 0.685592
vt 0.994929 0.925012
vt 0.755509 0.925012
vt 0.994929 0.685592
vt 0.994929 0.925012
vt 0.755509 0.925012
vt 0.994929 0.685592
vt 0.994929 0.925012
vt 0.755509 0.925012
vt 0.994929 0.925012
vt 0.755509 0.925012
vt 0.755509 0.685592
vt 0.994929 0.685592
vt 0.994929 0.925012
vt 0.755509 0.925012
vt 0.994929 0.685592
vt 0.994929 0.925012
vt 0.755509 0.925012
vt 0.994929 0.685592
vt 0.994929 0.925012
vt 0.755509 0.925012
vt 0.994929 0.925012
vt 0.755509 0.925012
vt 0.755509 0.685592
vt 0.994929 0.685592
vt 0.994929 0.925012
vt 0.755509 0.925012
vt 0.994929 0.685592
vt 0.994929 0.925012
vt 0.755509 0.925012
vt 0.994929 0.685592
vt 0.994929 0.925012
vt 0.755509 0.925012
vt 0.994929 0.925012
vt 0.755509 0.925012
vt 0.755509 0.685592
vt 0.994929 0.685592
vt 0.994929 0.925012
vt 0.755509 0.925012
vt 0.994929 0.685592
vt 0.994929 0.925012
vt 0.755509 0.925012
vt 0.994929 0.685592
vt 0.994929 0.925012
vt 0.755509 0.925012
vt 0.994929 0.925012
vt 0.755509 0.925012
vt 0.755509 0.685592
vt 0.994929 0.685592
vt 0.994929 0.925012
vt 0.755509 0.925012
vt 0.994929 0.685592
vt 0.994929 0.925012
vt 0.755509 0.925012
vt 0.994929 0.685592
vt 0.994929 0.925012
vt 0.755509 0.925012
vt 0.994929 0.925012
vt 0.755509 0.925012
vt 0.755509 0.685592
vt 0.994929 0.685592
vt 0.994929 0.925012
vt 0.755509 0.925012
vt 0.994929 0.685592
vt 0.994929 0.925012
vt 0.755509 0.925012
vt 0.994929 0.685592
vt 0.994929 0.925012
vt 0.755509 0.925012
vt 0.994929 0.925012
vt 0.755509 0.925012
vt 0.755509 0.685592
vt 0.994929 0.685592
vt 0.994929 0.925012
vt 0.755509 0.925012
vt 0.755509 0.685592
vt 0.994929 0.685592
vt 0.994929 0.925012
vt 0.755509 0.925012
vt 0.755509 0.685592
vt 0.994929 0.685592
vt 0.994929 0.925012
vt 0.755509 0.925012
vt 0.755509 0.685592
vt 0.994929 0.685592
vt 0.994929 0.925012
vt 0.755509 0.925012
vt 0.755509 0.685592
vt 0.994929 0.685592
vt 0.994929 0.925012
vt 0.755509 0.925012
vt 0.994929 0.685592
vt 0.994929 0.925012
vt 0.755509 0.925012
vt 0.994929 0.685592
vt 0.994929 0.925012
vt 0.755509 0.925012
vt 0.994929 0.925012
vt 0.755509 0.925012
vt 0.755509 0.685592
vt 0.994929 0.685592
vt 0.994929 0.925012
vt 0.755509 0.925012
vt 0.994929 0.685592
vt 0.994929 0.925012
vt 0.755509 0.925012
vt 0.994929 0.685592
vt 0.994929 0.925012
vt 0.755509 0.925012
vt 0.994929 0.925012
vt 0.755509 0.925012
vt 0.755509 0.685592
vt 0.994929 0.685592
vt 0.994929 0.925012
vt 0.755509 0.925012
vt 0.994929 0.685592
vt 0.994929 0.925012
vt 0.755509 0.925012
vt 0.994929 0.685592
vt 0.994929 0.925012
vt 0.755509 0.925012
vt 0.994929 0.925012
vt 0.755509 0.925012
vt 0.755509 0.685592
vt 0.994929 0.685592
vt 0.994929 0.925012
vt 0.755509 0.925012
vt 0.994929 0.685592
vt 0.994929 0.925012
vt 0.755509 0.925012
vt 0.994929 0.685592
vt 0.994929 0.925012
vt 0.755509 0.925012
vt 0.994929 0.925012
vt 0.755509 0.925012
vt 0.755509 0.685592
vt 0.994929 0.685592
vt 0.994929 0.925012
vt 0.755509 0.925012
vt 0.994929 0.685592
vt 0.994929 0.925012
vt 0.994929 0.685592
vt 0.994929 0.925012
vt 0.755509 0.685592
vt 0.994929 0.685592
vt 0.994929 0.925012
vt 0.755509 0.925012
vt 0.994929 0.685592
vt 0.994929 0.925012
vt 0.994929 0.685592
vt 0.994929 0.925012
vt 0.755509 0.685592
vt 0.994929 0.685592
vt 0.994929 0.925012
vt 0.755509 0.925012
vt 0.994929 0.685592
vt 0.994929 0.925012
vt 0.994929 0.685592
vt 0.994929 0.925012
vt 0.755509 0.685592
vt 0.994929 0.685592
vt 0.994929 0.925012
vt 0.755509 0.925012
vt 0.994929 0.685592
vt 0.994929 0.925012
vt 0.994929 0.685592
vt 0.994929 0.925012
vn 0.000000 1.000000 0.000000
vn 0.000000 1.000000 0.000000
vn 0.000000 1.000000 0.000000
vn 0.000000 1.000000 0.000000
vn 0.000000 -1.000000 0.000000
vn 0.000000 -1.000000 0.000000
vn 0.000000 -1.000000 0.000000
vn 0.000000 -1.000000 0.000000
vn 0.000000 -0.809949 0.586501
vn 0.000000 -0.809949 0.586501
vn 0.000000 -0.809949 0.586501
vn 0.000000 -0.809949 0.586501
vn 1.000000 0.000000 0.000000
vn 1.000000 0.000000 0.000000
vn 0.996301 -0.025621 0.082028
vn 0.996301 -0.025621 0.082028
vn 0.000000 0.809949 -0.586501
vn 0.000000 0.809949 -0.586501
vn 0.000000 0.809949 -0.586501
vn 0.000000 0.809949 -0.586501
vn -1.000000 0.000000 0.000000
vn -1.000000 0.000000 0.000000
vn -0.996301 -0.025621 0.082028
vn -0.996301 -0.025621 0.082028
vn 0.000000 0.810499 0.585739
vn 0.000000 0.810499 0.585739
vn 0.000000 0.810499 0.585739
vn 0.000000 0.810499 0.585739
vn 1.000000 0.000000 0.000000
vn 1.000000 0.000000 0.000000
vn 0.996301 -0.025623 -0.082029
vn 0.996301 -0.025623 -0.082029
vn 0.000000 -0.810499 -0.585739
vn 0.000000 -0.810499 -0.585739
vn 0.000000 -0.810499 -0.585739
vn 0.000000 -0.810499 -0.585739
vn -1.000000 0.000000 0.000000
vn -1.000000 0.000000 0.000000
vn -0.996301 -0.025624 -0.082029
vn -0.996301 -0.025624 -0.082029
vn 0.585740 -0.810499 0.000000
vn 0.585740 -0.810499 0.000000
vn 0.585740 -0.810499 0.000000
vn 0.585740 -0.810499 0.000000
vn 0.000000 0.000000 -1.000000
vn 0.000000 0.000000 -1.000000
vn 0.082029 -0.025623 -0.996301
vn 0.082029 -0.025623 -0.996301
vn -0.585740 0.810499 0.000000
vn -0.585740 0.810499 0.000000
vn -0.585740 0.810499 0.000000
vn -0.585740 0.810499 0.000000
vn 0.000000 0.000000 1.000000
vn 0.000000 0.000000 1.000000
vn 0.082029 -0.025623 0.996301
vn 0.082029 -0.025623 0.996301
vn -0.586501 -0.809949 0.000000
vn -0.586501 -0.809949 0.000000
vn -0.586501 -0.809949 0.000000
vn -0.586501 -0.809949 0.000000
vn 0.000000 0.000000 1.000000
vn 0.000000 0.000000 1.000000
vn -0.082028 -0.025621 0.996301
vn -0.082028 -0.025621 0.996301
vn 0.586501 0.809949 0.000000
vn 0.586501 0.809949 0.000000
vn 0.586501 0.809949 0.000000
vn 0.586501 0.809949 0.000000
vn -0.000000 0.000000 -1.000000
vn -0.000000 0.000000 -1.000000
vn -0.082028 -0.025621 -0.996301
vn -0.082028 -0.025621 -0.996301
vn 0.000000 -0.999799 -0.020030
vn 0.000000 -0.999799 -0.020030
vn 0.000000 -0.999799 -0.020030
vn 0.000000 -0.999799 -0.020030
vn 0.996449 -0.020283 0.081721
vn 0.996449 -0.020283 0.081721
vn 0.000000 0.994885 0.101010
vn 0.000000 0.994885 0.101010
vn 0.000000 0.994885 0.101010
vn 0.000000 0.994885 0.101010
vn -0.996449 -0.020283 0.081721
vn -0.996449 -0.020283 0.081721
vn 0.000000 0.994885 -0.101010
vn 0.000000 0.994885 -0.101010
vn 0.000000 0.994885 -0.101010
vn 0.000000 0.994885 -0.101010
vn 0.996450 -0.020282 -0.081712
vn 0.996450 -0.020282 -0.081712
vn 0.000000 -0.999801 0.019949
vn 0.000000 -0.999801 0.019949
vn 0.000000 -0.999801 0.019949
vn 0.000000 -0.999801 0.019949
vn -0.996450 -0.020283 -0.081711
vn -0.996450 -0.020283 -0.081711
vn -0.019949 -0.999801 0.000000
vn -0.019949 -0.999801 0.000000
vn -0.019949 -0.999801 0.000000
vn -0.019949 -0.999801 0.000000
vn 0.081711 -0.020283 -0.996450
vn 0.081711 -0.020283 -0.996450
vn 0.101010 0.994886 0.000000
vn 0.101010 0.994886 0.000000
vn 0.101010 0.994886 0.000000
vn 0.101010 0.994886 0.000000
vn 0.081711 -0.020283 0.996450
vn 0.081711 -0.020283 0.996450
vn 0.020030 -0.999799 0.000000
vn 0.020030 -0.999799 0.000000
vn 0.020030 -0.999799 0.000000
vn 0.020030 -0.999799 0.000000
vn -0.081721 -0.020283 0.996449
vn -0.081721 -0.020283 0.996449
vn -0.101010 0.994886 0.000000
vn -0.101010 0.994886 0.000000
vn -0.101010 0.994886 0.000000
vn -0.101010 0.994886 0.000000
vn -0.081721 -0.020283 -0.996449
vn -0.081721 -0.020283 -0.996449
vn 0.000000 -0.712512 -0.701660
vn 0.000000 -0.712512 -0.701660
vn 0.000000 -0.712512 -0.701660
vn 0.000000 -0.712512 -0.701660
vn 0.999943 0.010648 -0.000637
vn 0.999943 0.010648 -0.000637
vn 0.000000 0.566229 0.824248
vn 0.000000 0.566229 0.824248
vn 0.000000 0.843967 0.536395
vn 0.000000 0.843967 0.536395
vn -0.999943 0.010648 -0.000638
vn -0.999943 0.010648 -0.000638
vn 0.000000 0.567079 -0.823663
vn 0.000000 0.567079 -0.823663
vn 0.000000 0.844137 -0.536128
vn 0.000000 0.844137 -0.536128
vn 0.999943 0.010654 0.000658
vn 0.999943 0.010654 0.000658
vn 0.000000 -0.713289 0.700870
vn 0.000000 -0.713289 0.700870
vn 0.000000 -0.713289 0.700870
vn 0.000000 -0.713289 0.700870
vn -0.999943 0.010653 0.000659
vn -0.999943 0.010653 0.000659
vn -0.700870 -0.713289 0.000000
vn -0.700870 -0.713289 0.000000
vn -0.700870 -0.713289 0.000000
vn -0.700870 -0.713289 0.000000
vn -0.000658 0.010653 -0.999943
vn -0.000658 0.010653 -0.999943
vn 0.823664 0.567079 0.000000
vn 0.823664 0.567079 0.000000
vn 0.511809 0.859099 0.000000
vn 0.511809 0.859099 0.000000
vn -0.000658 0.010653 0.999943
vn -0.000658 0.010653 0.999943
vn 0.701660 -0.712512 0.000000
vn 0.701660 -0.712512 0.000000
vn 0.701660 -0.712512 0.000000
vn 0.701660 -0.712512 0.000000
vn 0.000637 0.010648 0.999943
vn 0.000637 0.010648 0.999943
vn -0.824248 0.566229 0.000000
vn -0.824248 0.566229 0.000000
vn -0.512070 0.858944 0.000000
vn -0.512070 0.858944 0.000000
vn 0.000637 0.010648 -0.999943
vn 0.000637 0.010648 -0.999943
vn 0.000000 -0.017303 0.999850
vn 0.000000 -0.017303 0.999850
vn 0.000000 -0.017303 0.999850
vn 0.000000 -0.017303 0.999850
vn 0.000000 -0.017301 -0.999850
vn 0.000000 -0.017301 -0.999850
vn 0.000000 -0.017301 -0.999850
vn 0.000000 -0.017301 -0.999850
vn 0.999850 -0.017303 0.000000
vn 0.999850 -0.017303 0.000000
vn 0.999850 -0.017303 0.000000
vn 0.999850 -0.017303 0.000000
vn -0.999850 -0.017301 0.000000
vn -0.999850 -0.017301 0.000000
vn -0.999850 -0.017301 0.000000
vn -0.999850 -0.017301 0.000000
vn 0.903592 0.066076 0.423269
vn 0.903592 0.066076 0.423269
vn 0.903592 0.066076 0.423269
vn 0.903592 0.066076 0.423269
vn 0.000000 0.952584 0.304277
vn 0.000000 0.952584 0.304277
vn -0.903592 0.066076 0.423269
vn -0.903592 0.066076 0.423269
vn -0.903592 0.066076 0.423269
vn -0.903592 0.066076 0.423269
vn 0.000000 -0.961481 0.274871
vn 0.000000 -0.961481 0.274871
vn 0.000000 -0.961481 0.274871
vn 0.000000 -0.961481 0.274871
vn 0.903591 0.066076 -0.423269
vn 0.903591 0.066076 -0.423269
vn 0.903591 0.066076 -0.423269
vn 0.903591 0.066076 -0.423269
vn 0.000000 -0.961481 -0.274871
vn 0.000000 -0.961481 -0.274871
vn 0.000000 -0.961481 -0.274871
vn 0.000000 -0.961481 -0.274871
vn -0.903591 0.066076 -0.423269
vn -0.903591 0.066076 -0.423269
vn -0.903591 0.066076 -0.423269
vn -0.903591 0.066076 -0.423269
vn 0.000000 0.952584 -0.304277
vn 0.000000 0.952584 -0.304277
vn 0.239360 -0.970931 0.000000
vn 0.239360 -0.970931 0.000000
vn 0.239360 -0.970931 0.000000
vn 0.239360 -0.970931 0.000000
vn 0.475189 0.058278 -0.877952
vn 0.475189 0.058278 -0.877952
vn 0.475189 0.058278 -0.877952
vn 0.475189 0.058278 -0.877952
vn 0.266920 0.963719 0.000000
vn 0.266920 0.963719 0.000000
vn 0.475189 0.058278 0.877952
vn 0.475189 0.058278 0.877952
vn 0.475189 0.058278 0.877952
vn 0.475189 0.058278 0.877952
vn -0.475188 0.058279 0.877952
vn -0.475188 0.058279 0.877952
vn -0.475188 0.058279 0.877952
vn -0.475188 0.058279 0.877952
vn -0.266920 0.963719 0.000000
vn -0.266920 0.963719 0.000000
vn -0.475188 0.058279 -0.877952
vn -0.475188 0.058279 -0.877952
vn -0.475188 0.058279 -0.877952
vn -0.475188 0.058279 -0.877952
vn -0.239361 -0.970931 0.000000
vn -0.239361 -0.970931 0.000000
vn -0.239361 -0.970931 0.000000
vn -0.239361 -0.970931 0.000000
vn 0.982427 0.062936 0.175714
vn 0.982427 0.062936 0.175714
vn 0.982427 0.062936 0.175714
vn 0.982427 0.062936 0.175714
vn 0.000000 0.999485 0.032089
vn 0.000000 0.999485 0.032089
vn 0.000000 0.999485 0.032089
vn 0.000000 0.999485 0.032089
vn -0.982427 0.062936 0.175714
vn -0.982427 0.062936 0.175714
vn -0.982427 0.062936 0.175714
vn -0.982427 0.062936 0.175714
vn 0.000000 -0.999921 -0.012560
vn 0.000000 -0.999921 -0.012560
vn 0.000000 -0.999921 -0.012560
vn 0.000000 -0.999921 -0.012560
vn 0.982427 0.062936 -0.175714
vn 0.982427 0.062936 -0.175714
vn 0.982427 0.062936 -0.175714
vn 0.982427 0.062936 -0.175714
vn 0.000000 -0.999921 0.012560
vn 0.000000 -0.999921 0.012560
vn 0.000000 -0.999921 0.012560
vn 0.000000 -0.999921 0.012560
vn -0.982427 0.062936 -0.175715
vn -0.982427 0.062936 -0.175715
vn -0.982427 0.062936 -0.175715
vn -0.982427 0.062936 -0.175715
vn 0.000000 0.999485 -0.032089
vn 0.000000 0.999485 -0.032089
vn 0.000000 0.999485 -0.032089
vn 0.000000 0.999485 -0.032089
vn 0.074253 -0.997239 0.000000
vn 0.074253 -0.997239 0.000000
vn 0.074253 -0.997239 0.000000
vn 0.074253 -0.997239 0.000000
vn 0.019621 0.090885 -0.995668
vn 0.019621 0.090885 -0.995668
vn 0.019621 0.090885 -0.995668
vn 0.019621 0.090885 -0.995668
vn 0.123391 0.992358 0.000000
vn 0.123391 0.992358 0.000000
vn 0.123391 0.992358 0.000000
vn 0.123391 0.992358 0.000000
vn 0.019621 0.090885 0.995668
vn 0.019621 0.090885 0.995668
vn 0.019621 0.090885 0.995668
vn 0.019621 0.090885 0.995668
vn -0.019621 0.090885 0.995668
vn -0.019621 0.090885 0.995668
vn -0.019621 0.090885 0.995668
vn -0.019621 0.090885 0.995668
vn -0.123388 0.992358 0.000000
vn -0.123388 0.992358 0.000000
vn -0.123388 0.992358 0.000000
vn -0.123388 0.992358 0.000000
vn -0.019621 0.090885 -0.995668
vn -0.019621 0.090885 -0.995668
vn -0.019621 0.090885 -0.995668
vn -0.019621 0.090885 -0.995668
vn -0.074256 -0.997239 0.000000
vn -0.074256 -0.997239 0.000000
vn -0.074256 -0.997239 0.000000
vn -0.074256 -0.997239 0.000000
s off
g vlammenwerper
usemtl lambert3SG
f 3/95/1 4/96/2 6/97/3 5/98/4
f 7/99/5 8/100/6 2/10/7 1/9/8
f 1/101/9 2/102/10 10/103/11 9/104/12
s 1
f 2/105/13 4/106/14 11/107/15 10/108/16
s off
f 4/109/17 3/110/18 12/111/19 11/112/20
s 2
f 3/113/21 1/114/22 9/115/23 12/116/24
s off
f 5/117/25 6/118/26 14/119/27 13/120/28
s 3
f 6/6/29 8/121/30 15/122/31 14/123/32
s off
f 8/8/33 7/124/34 16/125/35 15/126/36
s 4
f 7/7/37 5/5/38 13/127/39 16/128/40
s off
f 2/129/41 8/130/42 17/131/43 18/132/44
s 5
f 8/11/45 6/133/46 19/134/47 17/135/48
s off
f 6/12/49 4/136/50 20/137/51 19/138/52
s 6
f 4/4/53 2/2/54 18/139/55 20/140/56
s off
f 7/141/57 1/142/58 22/143/59 21/144/60
s 7
f 1/1/61 3/145/62 23/146/63 22/147/64
s off
f 3/3/65 5/148/66 24/149/67 23/150/68
s 8
f 5/14/69 7/13/70 21/151/71 24/152/72
s off
f 9/153/73 10/154/74 26/155/75 25/156/76
s 1
f 10/16/16 11/157/15 27/158/77 26/159/78
s off
f 11/17/79 12/160/80 28/161/81 27/162/82
s 2
f 12/18/24 9/15/23 25/163/83 28/164/84
s off
f 13/165/85 14/166/86 30/167/87 29/168/88
s 3
f 14/20/32 15/169/31 31/170/89 30/171/90
s off
f 15/21/91 16/172/92 32/173/93 31/174/94
s 4
f 16/22/40 13/19/39 29/175/95 32/176/96
s off
f 18/177/97 17/178/98 33/179/99 34/180/100
s 5
f 17/24/48 19/181/47 35/182/101 33/183/102
s off
f 19/25/103 20/184/104 36/185/105 35/186/106
s 6
f 20/26/56 18/23/55 34/187/107 36/188/108
s off
f 21/189/109 22/190/110 38/191/111 37/192/112
s 7
f 22/28/64 23/193/63 39/194/113 38/195/114
s off
f 23/29/115 24/196/116 40/197/117 39/198/118
s 8
f 24/30/72 21/27/71 37/199/119 40/200/120
s off
f 25/201/121 26/202/122 42/203/123 41/204/124
s 1
f 26/32/78 27/205/77 43/206/125 42/207/126
s 9
f 27/33/127 28/208/128 44/209/129 43/210/130
s 2
f 28/34/84 25/31/83 41/211/131 44/212/132
s 10
f 29/213/133 30/214/134 46/215/135 45/216/136
s 3
f 30/36/90 31/217/89 47/218/137 46/219/138
s off
f 31/37/139 32/220/140 48/221/141 47/222/142
s 4
f 32/38/96 29/35/95 45/223/143 48/224/144
s off
f 34/225/145 33/226/146 49/227/147 50/228/148
s 5
f 33/40/102 35/229/101 51/230/149 49/231/150
s 11
f 35/41/151 36/232/152 52/233/153 51/234/154
s 6
f 36/42/108 34/39/107 50/235/155 52/236/156
s off
f 37/237/157 38/238/158 54/239/159 53/240/160
s 7
f 38/44/114 39/241/113 55/242/161 54/243/162
s 12
f 39/45/163 40/244/164 56/245/165 55/246/166
s 8
f 40/46/120 37/43/119 53/247/167 56/248/168
s off
f 73/249/169 74/250/170 75/251/171 76/252/172
f 77/253/173 78/254/174 79/255/175 80/256/176
f 82/257/177 81/258/178 83/259/179 84/260/180
f 85/261/181 86/262/182 87/263/183 88/264/184
f 42/265/185 43/266/186 58/267/187 57/268/188
s 9
f 43/49/130 44/269/129 59/270/189 58/271/190
s off
f 44/50/191 41/272/192 60/273/193 59/274/194
f 41/47/195 42/48/196 57/275/197 60/276/198
f 46/277/199 47/278/200 62/279/201 61/280/202
f 47/53/203 48/281/204 63/282/205 62/283/206
f 48/54/207 45/284/208 64/285/209 63/286/210
s 10
f 45/51/136 46/52/135 61/287/211 64/288/212
s off
f 50/289/213 49/290/214 65/291/215 66/292/216
f 49/56/217 51/293/218 67/294/219 65/295/220
s 11
f 51/57/154 52/296/153 68/297/221 67/298/222
s off
f 52/58/223 50/55/224 66/299/225 68/300/226
f 54/301/227 55/302/228 70/303/229 69/304/230
s 12
f 55/61/166 56/305/165 71/306/231 70/307/232
s off
f 56/62/233 53/308/234 72/309/235 71/310/236
f 53/59/237 54/60/238 69/311/239 72/312/240
f 57/313/241 58/314/242 74/315/243 73/316/244
f 58/64/245 59/317/246 75/318/247 74/80/248
f 59/65/249 60/319/250 76/320/251 75/81/252
f 60/66/253 57/63/254 73/79/255 76/82/256
f 61/321/257 62/322/258 78/323/259 77/324/260
f 62/68/261 63/325/262 79/326/263 78/84/264
f 63/69/265 64/327/266 80/328/267 79/85/268
f 64/70/269 61/67/270 77/83/271 80/86/272
f 66/329/273 65/330/274 81/331/275 82/332/276
f 65/72/277 67/333/278 83/334/279 81/88/280
f 67/73/281 68/335/282 84/336/283 83/89/284
f 68/74/285 66/71/286 82/87/287 84/90/288
f 69/337/289 70/338/290 86/339/291 85/340/292
f 70/76/293 71/341/294 87/342/295 86/92/296
f 71/77/297 72/343/298 88/344/299 87/93/300
f 72/78/301 69/75/302 85/91/303 88/94/304
